<?xml version="1.0" encoding="UTF-8" standalone="no"?>
<!-- Created with Inkscape (http://www.inkscape.org/) -->

<svg
   xmlns:dc="http://purl.org/dc/elements/1.1/"
   xmlns:cc="http://creativecommons.org/ns#"
   xmlns:rdf="http://www.w3.org/1999/02/22-rdf-syntax-ns#"
   xmlns:svg="http://www.w3.org/2000/svg"
   xmlns="http://www.w3.org/2000/svg"
   xmlns:sodipodi="http://sodipodi.sourceforge.net/DTD/sodipodi-0.dtd"
   xmlns:inkscape="http://www.inkscape.org/namespaces/inkscape"
   width="400"
   height="250"
   viewBox="0 0 400.00002 250"
   id="svg4642"
   version="1.1"
   inkscape:version="0.91 r13725"
   sodipodi:docname="ChiaNan.svg">
  <defs
     id="defs4644" />
  <sodipodi:namedview
     id="base"
     pagecolor="#ffffff"
     bordercolor="#666666"
     borderopacity="1.0"
     inkscape:pageopacity="0.0"
     inkscape:pageshadow="2"
     inkscape:zoom="2.84"
     inkscape:cx="185.07638"
     inkscape:cy="116.4426"
     inkscape:document-units="px"
     inkscape:current-layer="layer1"
     showgrid="false"
     fit-margin-top="0"
     fit-margin-left="0"
     fit-margin-right="0"
     fit-margin-bottom="0"
     units="px"
     inkscape:window-width="1920"
     inkscape:window-height="1017"
     inkscape:window-x="-8"
     inkscape:window-y="-8"
     inkscape:window-maximized="1"
     showguides="true"
     inkscape:guide-bbox="true" />
  <metadata
     id="metadata4647">
    <rdf:RDF>
      <cc:Work
         rdf:about="">
        <dc:format>image/svg+xml</dc:format>
        <dc:type
           rdf:resource="http://purl.org/dc/dcmitype/StillImage" />
        <dc:title></dc:title>
      </cc:Work>
    </rdf:RDF>
  </metadata>
  <g
     inkscape:label="Layer 1"
     inkscape:groupmode="layer"
     id="layer1"
     transform="translate(-403.13436,-648.49753)">
    <g
       id="g10456">
      <g
         id="g10174">
        <path
           inkscape:connector-curvature="0"
           id="path7162"
           style="fill:#ffffff;fill-opacity:1;fill-rule:nonzero;stroke:none"
           d="m 477.9971,704.03455 123.1289,-44.80583 123.10593,44.80583 0,89.55897 -123.10593,44.77746 -123.1289,-44.77746 0,-89.55897 z" />
        <g
           id="g7172"
           transform="matrix(1.3507937,0,0,-1.3507937,599.59433,870.99143)">
          <path
             d="m 0,0 c 0,0 -4.268,1.382 -4.818,7.593 0,0 0.125,6.512 7.053,6.454 0,0 6.7,-0.143 5.826,-8.229 0,0 -0.448,-4.129 -3.328,-5.98 C 4.733,-0.162 3.421,-1.9 0,0"
             style="fill:#fac000;fill-opacity:1;fill-rule:nonzero;stroke:none"
             id="path7174"
             inkscape:connector-curvature="0" />
        </g>
        <g
           id="g7176"
           transform="matrix(1.3507937,0,0,-1.3507937,608.03936,872.42273)">
          <path
             d="m 0,0 c 0,0 -0.459,4.08 5.456,7.206 0,0 6.579,2.722 9.508,-2.962 0,0 2.777,-5.529 -5.687,-8.315 0,0 -4.308,-1.418 -7.395,0.125 0,0 -2.293,0.317 -1.882,3.946"
             style="fill:#fac000;fill-opacity:1;fill-rule:nonzero;stroke:none"
             id="path7178"
             inkscape:connector-curvature="0" />
        </g>
        <g
           id="g7180"
           transform="matrix(1.3507937,0,0,-1.3507937,611.76201,878.71892)">
          <path
             d="m 0,0 c 0,0 4.555,-0.116 7.206,-5.855 0,0 2.098,-6.25 -4.506,-8.123 0,0 -6.421,-1.766 -8.345,6.184 0,0 -0.994,4.061 1.11,6.627 0,0 0.638,2.025 4.535,1.167"
             style="fill:#fac000;fill-opacity:1;fill-rule:nonzero;stroke:none"
             id="path7182"
             inkscape:connector-curvature="0" />
        </g>
        <g
           id="g7184"
           transform="matrix(1.3507937,0,0,-1.3507937,603.19285,884.45196)">
          <path
             d="m 0,0 c 0,0 1.215,-3.964 -4.005,-7.977 0,0 -5.966,-3.705 -9.917,1.437 0,0 -3.806,5.015 3.989,9.058 0,0 3.999,2.094 7.313,1.053 0,0 2.345,0.036 2.62,-3.571"
             style="fill:#fac000;fill-opacity:1;fill-rule:nonzero;stroke:none"
             id="path7186"
             inkscape:connector-curvature="0" />
        </g>
        <g
           id="g7188"
           transform="matrix(1.3507937,0,0,-1.3507937,595.52345,878.14307)">
          <path
             d="m 0,0 c 0,0 -3.165,-2.923 -9.619,-0.792 0,0 -6.517,2.816 -3.541,8.5 0,0 2.904,5.469 10.666,1.371 0,0 3.971,-2.095 4.645,-5.249 C 2.151,3.83 3.356,2.024 0,0"
             style="fill:#fac000;fill-opacity:1;fill-rule:nonzero;stroke:none"
             id="path7190"
             inkscape:connector-curvature="0" />
        </g>
        <g
           id="g7192"
           transform="matrix(1.3507937,0,0,-1.3507937,610.67233,875.21131)">
          <path
             d="m 0,0 c 0.115,-3.154 -2.305,-5.788 -5.412,-5.885 -3.087,-0.076 -5.663,2.421 -5.778,5.574 -0.116,3.158 2.304,5.782 5.387,5.858 C -2.701,5.645 -0.116,3.145 0,0"
             style="fill:#ac7733;fill-opacity:1;fill-rule:nonzero;stroke:none"
             id="path7194"
             inkscape:connector-curvature="0" />
        </g>
        <g
           id="g7196"
           transform="matrix(1.3507937,0,0,-1.3507937,617.41576,870.06209)">
          <path
             d="M 0,0 C -0.56,-0.253 -1.208,-0.128 -1.458,0.307 -1.714,0.761 -1.485,1.3 -0.925,1.589 -0.393,1.833 0.28,1.705 0.539,1.282 0.783,0.819 0.539,0.259 0,0"
             style="fill:#ac7733;fill-opacity:1;fill-rule:nonzero;stroke:none"
             id="path7198"
             inkscape:connector-curvature="0" />
        </g>
        <g
           id="g7200"
           transform="matrix(1.3507937,0,0,-1.3507937,607.48405,873.73922)">
          <path
             d="M 0,0 -0.128,0.223 6.845,3.59 6.979,3.376 0,0 Z"
             style="fill:#ac7733;fill-opacity:1;fill-rule:nonzero;stroke:none"
             id="path7202"
             inkscape:connector-curvature="0" />
        </g>
        <g
           id="g7204"
           transform="matrix(1.3507937,0,0,-1.3507937,612.7408,887.86582)">
          <path
             d="M 0,0 C -0.42,0.405 -0.42,1.023 -0.04,1.331 0.396,1.668 1.065,1.583 1.467,1.187 1.881,0.761 1.888,0.134 1.488,-0.164 1.077,-0.502 0.407,-0.423 0,0"
             style="fill:#ac7733;fill-opacity:1;fill-rule:nonzero;stroke:none"
             id="path7206"
             inkscape:connector-curvature="0" />
        </g>
        <g
           id="g7208"
           transform="matrix(1.3507937,0,0,-1.3507937,606.4565,880.01892)">
          <path
             d="M 0,0 0.195,0.174 5.456,-5.172 5.242,-5.337 0,0 Z"
             style="fill:#ac7733;fill-opacity:1;fill-rule:nonzero;stroke:none"
             id="path7210"
             inkscape:connector-curvature="0" />
        </g>
        <g
           id="g7212"
           transform="matrix(1.3507937,0,0,-1.3507937,594.8263,887.86582)">
          <path
             d="M 0,0 C 0.313,0.472 0.95,0.646 1.413,0.405 1.875,0.155 2.021,-0.444 1.697,-0.925 1.379,-1.428 0.728,-1.601 0.274,-1.342 -0.193,-1.09 -0.309,-0.502 0,0"
             style="fill:#ac7733;fill-opacity:1;fill-rule:nonzero;stroke:none"
             id="path7214"
             inkscape:connector-curvature="0" />
        </g>
        <g
           id="g7216"
           transform="matrix(1.3507937,0,0,-1.3507937,601.1984,880.11321)">
          <path
             d="M 0,0 0.251,-0.134 -3.781,-6.269 -4.032,-6.125 0,0 Z"
             style="fill:#ac7733;fill-opacity:1;fill-rule:nonzero;stroke:none"
             id="path7218"
             inkscape:connector-curvature="0" />
        </g>
        <g
           id="g7220"
           transform="matrix(1.3507937,0,0,-1.3507937,588.75165,872.73531)">
          <path
             d="M 0,0 C 0.609,-0.116 1.019,-0.588 0.908,-1.081 0.807,-1.583 0.238,-1.863 -0.38,-1.757 -1.012,-1.641 -1.413,-1.148 -1.288,-0.676 -1.186,-0.174 -0.603,0.116 0,0"
             style="fill:#ac7733;fill-opacity:1;fill-rule:nonzero;stroke:none"
             id="path7222"
             inkscape:connector-curvature="0" />
        </g>
        <g
           id="g7224"
           transform="matrix(1.3507937,0,0,-1.3507937,598.97567,875.66774)">
          <path
             d="M 0,0 -0.052,-0.25 -7.79,1.197 -7.727,1.456 0,0 Z"
             style="fill:#ac7733;fill-opacity:1;fill-rule:nonzero;stroke:none"
             id="path7226"
             inkscape:connector-curvature="0" />
        </g>
        <g
           id="g7228"
           transform="matrix(1.3507937,0,0,-1.3507937,601.93445,862.63475)">
          <path
             d="M 0,0 C 0.091,-0.551 -0.265,-1.072 -0.801,-1.148 -1.336,-1.227 -1.848,-0.832 -1.944,-0.28 -2.06,0.258 -1.717,0.779 -1.163,0.858 -0.623,0.943 -0.106,0.578 0,0"
             style="fill:#ac7733;fill-opacity:1;fill-rule:nonzero;stroke:none"
             id="path7230"
             inkscape:connector-curvature="0" />
        </g>
        <g
           id="g7232"
           transform="matrix(1.3507937,0,0,-1.3507937,602.57418,872.3198)">
          <path
             d="M 0,0 -0.28,-0.058 -1.568,7.005 -1.274,7.042 0,0 Z"
             style="fill:#ac7733;fill-opacity:1;fill-rule:nonzero;stroke:none"
             id="path7234"
             inkscape:connector-curvature="0" />
        </g>
        <g
           id="g7236"
           transform="matrix(1.3507937,0,0,-1.3507937,596.25287,864.10752)">
          <path
             d="M 0,0 C 0.381,-0.454 0.323,-1.062 -0.12,-1.352 -0.564,-1.641 -1.201,-1.498 -1.583,-1.062 -1.959,-0.6 -1.896,0 -1.447,0.298 -1.018,0.615 -0.371,0.454 0,0"
             style="fill:#ac7733;fill-opacity:1;fill-rule:nonzero;stroke:none"
             id="path7238"
             inkscape:connector-curvature="0" />
        </g>
        <g
           id="g7240"
           transform="matrix(1.3507937,0,0,-1.3507937,601.67982,872.44772)">
          <path
             d="M 0,0 -0.221,-0.146 -4.876,5.596 -4.649,5.739 0,0 Z"
             style="fill:#ac7733;fill-opacity:1;fill-rule:nonzero;stroke:none"
             id="path7242"
             inkscape:connector-curvature="0" />
        </g>
        <g
           id="g7244"
           transform="matrix(1.3507937,0,0,-1.3507937,613.34501,865.62054)">
          <path
             d="m 0,0 c -0.396,-0.423 -1.068,-0.521 -1.501,-0.183 -0.401,0.308 -0.414,0.916 -0.006,1.34 0.387,0.435 1.06,0.502 1.483,0.182 C 0.39,1.032 0.39,0.426 0,0"
             style="fill:#ac7733;fill-opacity:1;fill-rule:nonzero;stroke:none"
             id="path7246"
             inkscape:connector-curvature="0" />
        </g>
        <g
           id="g7248"
           transform="matrix(1.3507937,0,0,-1.3507937,605.63589,872.34493)">
          <path
             d="M 0,0 -0.227,0.165 4.882,5.624 5.098,5.45 0,0 Z"
             style="fill:#ac7733;fill-opacity:1;fill-rule:nonzero;stroke:none"
             id="path7250"
             inkscape:connector-curvature="0" />
        </g>
        <g
           id="g7252"
           transform="matrix(1.3507937,0,0,-1.3507937,617.28122,883.39523)">
          <path
             d="M 0,0 C -0.585,0.259 -0.877,0.779 -0.686,1.233 -0.47,1.687 0.167,1.9 0.755,1.678 1.327,1.456 1.619,0.926 1.421,0.463 1.211,0 0.554,-0.173 0,0"
             style="fill:#ac7733;fill-opacity:1;fill-rule:nonzero;stroke:none"
             id="path7254"
             inkscape:connector-curvature="0" />
        </g>
        <g
           id="g7256"
           transform="matrix(1.3507937,0,0,-1.3507937,607.8389,878.76836)">
          <path
             d="M 0,0 0.106,0.24 7.41,-2.5 7.27,-2.75 0,0 Z"
             style="fill:#ac7733;fill-opacity:1;fill-rule:nonzero;stroke:none"
             id="path7258"
             inkscape:connector-curvature="0" />
        </g>
        <g
           id="g7260"
           transform="matrix(1.3507937,0,0,-1.3507937,601.17192,890.25078)">
          <path
             d="M 0,0 C 0.049,0.56 0.511,0.983 1.052,0.974 1.602,0.917 2.013,0.454 1.978,-0.106 1.935,-0.667 1.461,-1.108 0.927,-1.072 0.376,-1.041 -0.034,-0.569 0,0"
             style="fill:#ac7733;fill-opacity:1;fill-rule:nonzero;stroke:none"
             id="path7262"
             inkscape:connector-curvature="0" />
        </g>
        <g
           id="g7264"
           transform="matrix(1.3507937,0,0,-1.3507937,602.91985,880.66001)">
          <path
             d="M 0,0 0.283,-0.037 -0.208,-7.158 -0.507,-7.149 0,0 Z"
             style="fill:#ac7733;fill-opacity:1;fill-rule:nonzero;stroke:none"
             id="path7266"
             inkscape:connector-curvature="0" />
        </g>
        <g
           id="g7268"
           transform="matrix(1.3507937,0,0,-1.3507937,588.38166,878.93721)">
          <path
             d="M 0,0 C 0.583,0.162 1.221,-0.079 1.37,-0.56 1.548,-1.014 1.201,-1.525 0.583,-1.717 0,-1.881 -0.623,-1.641 -0.763,-1.151 -0.932,-0.697 -0.589,-0.195 0,0"
             style="fill:#ac7733;fill-opacity:1;fill-rule:nonzero;stroke:none"
             id="path7270"
             inkscape:connector-curvature="0" />
        </g>
        <g
           id="g7272"
           transform="matrix(1.3507937,0,0,-1.3507937,598.8853,876.99611)">
          <path
             d="M 0,0 0.082,-0.222 -7.429,-2.366 -7.535,-2.134 0,0 Z"
             style="fill:#ac7733;fill-opacity:1;fill-rule:nonzero;stroke:none"
             id="path7274"
             inkscape:connector-curvature="0" />
        </g>
        <g
           id="g7276"
           transform="matrix(1.3507937,0,0,-1.3507937,619.20056,876.47768)">
          <path
             d="M 0,0 C -0.63,-0.037 -1.172,0.319 -1.208,0.822 -1.27,1.294 -0.812,1.738 -0.179,1.787 0.442,1.836 0.99,1.477 1.039,0.986 1.087,0.493 0.609,0.061 0,0"
             style="fill:#ac7733;fill-opacity:1;fill-rule:nonzero;stroke:none"
             id="path7278"
             inkscape:connector-curvature="0" />
        </g>
        <g
           id="g7280"
           transform="matrix(1.3507937,0,0,-1.3507937,608.48391,876.30491)">
          <path
             d="M 0,0 -0.027,0.259 7.818,0.858 7.858,0.597 0,0 Z"
             style="fill:#ac7733;fill-opacity:1;fill-rule:nonzero;stroke:none"
             id="path7282"
             inkscape:connector-curvature="0" />
        </g>
        <g
           id="g7284"
           transform="matrix(1.3507937,0,0,-1.3507937,607.7307,889.87229)">
          <path
             d="M 0,0 C -0.183,0.511 0.062,1.099 0.598,1.224 1.111,1.397 1.681,1.099 1.882,0.56 2.077,0.009 1.812,-0.551 1.304,-0.685 0.786,-0.85 0.201,-0.551 0,0"
             style="fill:#ac7733;fill-opacity:1;fill-rule:nonzero;stroke:none"
             id="path7286"
             inkscape:connector-curvature="0" />
        </g>
        <g
           id="g7288"
           transform="matrix(1.3507937,0,0,-1.3507937,605.40112,880.43848)">
          <path
             d="M 0,0 0.241,0.098 2.745,-6.695 2.492,-6.771 0,0 Z"
             style="fill:#ac7733;fill-opacity:1;fill-rule:nonzero;stroke:none"
             id="path7290"
             inkscape:connector-curvature="0" />
        </g>
        <g
           id="g7292"
           transform="matrix(1.3507937,0,0,-1.3507937,590.93548,884.074)">
          <path
             d="M 0,0 C 0.492,0.329 1.168,0.28 1.495,-0.125 1.814,-0.521 1.668,-1.129 1.168,-1.428 0.656,-1.775 -0.014,-1.717 -0.342,-1.312 -0.647,-0.935 -0.502,-0.338 0,0"
             style="fill:#ac7733;fill-opacity:1;fill-rule:nonzero;stroke:none"
             id="path7294"
             inkscape:connector-curvature="0" />
        </g>
        <g
           id="g7296"
           transform="matrix(1.3507937,0,0,-1.3507937,600.16815,879.17603)">
          <path
             d="M 0,0 0.174,-0.191 -6.208,-4.417 -6.376,-4.204 0,0 Z"
             style="fill:#ac7733;fill-opacity:1;fill-rule:nonzero;stroke:none"
             id="path7298"
             inkscape:connector-curvature="0" />
        </g>
        <g
           id="g7300"
           transform="matrix(1.3507937,0,0,-1.3507937,591.53631,867.73048)">
          <path
             d="m 0,0 c 0.511,-0.329 0.669,-0.907 0.356,-1.321 -0.309,-0.405 -0.955,-0.454 -1.481,-0.146 -0.487,0.338 -0.67,0.916 -0.356,1.33 C -1.172,0.268 -0.502,0.338 0,0"
             style="fill:#ac7733;fill-opacity:1;fill-rule:nonzero;stroke:none"
             id="path7302"
             inkscape:connector-curvature="0" />
        </g>
        <g
           id="g7304"
           transform="matrix(1.3507937,0,0,-1.3507937,599.68727,874.05111)">
          <path
             d="M 0,0 -0.169,-0.174 -6.633,3.888 -6.493,4.101 0,0 Z"
             style="fill:#ac7733;fill-opacity:1;fill-rule:nonzero;stroke:none"
             id="path7306"
             inkscape:connector-curvature="0" />
        </g>
        <g
           id="g7308"
           transform="matrix(1.3507937,0,0,-1.3507937,607.7307,863.00081)">
          <path
             d="m 0,0 c -0.143,-0.561 -0.697,-0.877 -1.248,-0.771 -0.516,0.104 -0.805,0.646 -0.67,1.215 0.141,0.548 0.694,0.877 1.221,0.77 C -0.164,1.09 0.152,0.569 0,0"
             style="fill:#ac7733;fill-opacity:1;fill-rule:nonzero;stroke:none"
             id="path7310"
             inkscape:connector-curvature="0" />
        </g>
        <g
           id="g7312"
           transform="matrix(1.3507937,0,0,-1.3507937,604.13746,872.12259)">
          <path
             d="M 0,0 -0.289,0.058 1.602,6.984 1.875,6.917 0,0 Z"
             style="fill:#ac7733;fill-opacity:1;fill-rule:nonzero;stroke:none"
             id="path7314"
             inkscape:connector-curvature="0" />
        </g>
        <g
           id="g7316"
           transform="matrix(1.3507937,0,0,-1.3507937,570.31345,870.40384)">
          <path
             d="m 0,0 c 0,0 -5.389,-11.691 -16.266,-16.468 0,0 -8.466,-5.365 -21.089,-2.143 0,0 0.959,9.109 13.897,15.15 0,0 11.861,5.111 23.458,3.461"
             style="fill:#d29125;fill-opacity:1;fill-rule:nonzero;stroke:none"
             id="path7318"
             inkscape:connector-curvature="0" />
        </g>
        <g
           id="g7320"
           transform="matrix(1.3507937,0,0,-1.3507937,570.24753,870.50663)">
          <path
             d="m 0,0 c 0,0 -9.682,1.967 -14.524,8.056 0,0 -5.056,4.524 -3.806,12.58 0,0 7.226,0.414 13.274,-6.765 0,0 5.192,-6.625 5.056,-13.871"
             style="fill:#d29125;fill-opacity:1;fill-rule:nonzero;stroke:none"
             id="path7322"
             inkscape:connector-curvature="0" />
        </g>
        <g
           id="g7324"
           transform="matrix(1.3507937,0,0,-1.3507937,570.24753,870.40384)">
          <path
             d="m 0,0 c 0,0 -5.816,-15.137 -15.334,-18.87 0,0 -12.272,-4.661 -22.001,0.241 0,0 19.126,4.091 37.335,18.629"
             style="fill:#ac7733;fill-opacity:1;fill-rule:nonzero;stroke:none"
             id="path7326"
             inkscape:connector-curvature="0" />
        </g>
        <g
           id="g7328"
           transform="matrix(1.3507937,0,0,-1.3507937,545.4425,842.66042)">
          <path
             d="m 0,0 c 0,0 6.506,0.743 12.86,-6.22 0,0 5.779,-6.765 5.537,-14.358 0,0 -8.35,15.159 -18.397,20.578"
             style="fill:#ac7733;fill-opacity:1;fill-rule:nonzero;stroke:none"
             id="path7330"
             inkscape:connector-curvature="0" />
        </g>
        <g
           id="g7332"
           transform="matrix(1.3507937,0,0,-1.3507937,458.51352,684.27)">
          <path
             d="m 0,0 c 0,0 -7.062,-2.177 -6.165,-9.353 0,0 6.474,1.918 6.165,9.353"
             style="fill:#d29125;fill-opacity:1;fill-rule:nonzero;stroke:none"
             id="path7334"
             inkscape:connector-curvature="0" />
        </g>
        <g
           id="g7336"
           transform="matrix(1.3507937,0,0,-1.3507937,458.51352,684.27)">
          <path
             d="m 0,0 c 0,0 2.006,-7.051 -6.165,-9.353 0,0 5.562,5.02 6.165,9.353"
             style="fill:#ac7733;fill-opacity:1;fill-rule:nonzero;stroke:none"
             id="path7338"
             inkscape:connector-curvature="0" />
        </g>
        <g
           id="g7340"
           transform="matrix(1.3507937,0,0,-1.3507937,537.43999,861.72188)">
          <path
             d="m 0,0 c 0,0 -6.709,-9.234 -16.989,-11.53 0,0 -8.262,-3.212 -18.663,1.745 0,0 2.427,7.718 14.707,10.768 0,0 11.178,2.46 20.945,-0.983"
             style="fill:#d29125;fill-opacity:1;fill-rule:nonzero;stroke:none"
             id="path7342"
             inkscape:connector-curvature="0" />
        </g>
        <g
           id="g7344"
           transform="matrix(1.3507937,0,0,-1.3507937,537.37596,861.7878)">
          <path
             d="m 0,0 c 0,0 -8.056,3.346 -11.211,9.453 0,0 -3.608,4.765 -1.086,11.548 0,0 6.354,-0.84 10.318,-8.092 0,0 3.363,-6.628 1.979,-12.909"
             style="fill:#d29125;fill-opacity:1;fill-rule:nonzero;stroke:none"
             id="path7346"
             inkscape:connector-curvature="0" />
        </g>
        <g
           id="g7348"
           transform="matrix(1.3507937,0,0,-1.3507937,537.37596,861.685)">
          <path
             d="m 0,0 c 0,0 -7.675,-12.136 -16.599,-13.777 0,0 -11.452,-1.957 -19.03,3.955 0,0 17.298,0.271 35.629,9.822"
             style="fill:#ac7733;fill-opacity:1;fill-rule:nonzero;stroke:none"
             id="path7350"
             inkscape:connector-curvature="0" />
        </g>
        <g
           id="g7352"
           transform="matrix(1.3507937,0,0,-1.3507937,520.70812,833.41991)">
          <path
             d="m 0,0 c 0,0 5.788,-0.454 10.062,-7.572 0,0 3.83,-6.859 2.306,-13.38 0,0 -4.588,14.547 -12.368,20.952"
             style="fill:#ac7733;fill-opacity:1;fill-rule:nonzero;stroke:none"
             id="path7354"
             inkscape:connector-curvature="0" />
        </g>
        <g
           id="g7356"
           transform="matrix(1.3507937,0,0,-1.3507937,503.0238,845.09482)">
          <path
             d="m 0,0 c 0,0 -6.512,-7.968 -15.918,-9.493 0,0 -7.607,-2.49 -16.686,2.478 0,0 2.596,6.85 13.801,8.973 0,0 10.187,1.61 18.803,-1.958"
             style="fill:#d29125;fill-opacity:1;fill-rule:nonzero;stroke:none"
             id="path7358"
             inkscape:connector-curvature="0" />
        </g>
        <g
           id="g7360"
           transform="matrix(1.3507937,0,0,-1.3507937,502.95788,845.13643)">
          <path
             d="m 0,0 c 0,0 -7.077,3.438 -9.595,9.052 0,0 -2.989,4.484 -0.371,10.458 0,0 5.654,-1.081 8.847,-7.806 0,0 2.687,-6.144 1.119,-11.704"
             style="fill:#d29125;fill-opacity:1;fill-rule:nonzero;stroke:none"
             id="path7362"
             inkscape:connector-curvature="0" />
        </g>
        <g
           id="g7364"
           transform="matrix(1.3507937,0,0,-1.3507937,502.97895,845.07051)">
          <path
             d="m 0,0 c 0,0 -7.569,-10.543 -15.663,-11.548 0,0 -10.411,-1.157 -16.961,4.515 0,0 15.62,-0.606 32.624,7.033"
             style="fill:#ac7733;fill-opacity:1;fill-rule:nonzero;stroke:none"
             id="path7366"
             inkscape:connector-curvature="0" />
        </g>
        <g
           id="g7368"
           transform="matrix(1.3507937,0,0,-1.3507937,489.43211,818.78271)">
          <path
             d="m 0,0 c 0,0 5.176,-0.707 8.668,-7.322 0,0 3.102,-6.379 1.37,-12.176 0,0 -3.377,13.332 -10.038,19.498"
             style="fill:#ac7733;fill-opacity:1;fill-rule:nonzero;stroke:none"
             id="path7370"
             inkscape:connector-curvature="0" />
        </g>
        <g
           id="g7372"
           transform="matrix(1.3507937,0,0,-1.3507937,470.75712,828.50478)">
          <path
             d="m 0,0 c 0,0 -6.777,-6.89 -15.692,-7.544 0,0 -7.313,-1.681 -15.388,3.741 0,0 3.024,6.175 13.68,7.198 0,0 9.658,0.666 17.4,-3.395"
             style="fill:#d29125;fill-opacity:1;fill-rule:nonzero;stroke:none"
             id="path7374"
             inkscape:connector-curvature="0" />
        </g>
        <g
           id="g7376"
           transform="matrix(1.3507937,0,0,-1.3507937,470.7301,828.53382)">
          <path
             d="m 0,0 c 0,0 -6.328,3.772 -8.2,9.283 0,0 -2.407,4.436 0.545,9.809 0,0 5.195,-1.504 7.613,-8.065 0,0 1.961,-5.961 0.042,-11.027"
             style="fill:#d29125;fill-opacity:1;fill-rule:nonzero;stroke:none"
             id="path7378"
             inkscape:connector-curvature="0" />
        </g>
        <g
           id="g7380"
           transform="matrix(1.3507937,0,0,-1.3507937,470.7301,828.48033)">
          <path
             d="m 0,0 c 0,0 -7.978,-9.222 -15.643,-9.484 0,0 -9.831,-0.222 -15.436,5.663 0,0 14.524,-1.89 31.079,3.821"
             style="fill:#ac7733;fill-opacity:1;fill-rule:nonzero;stroke:none"
             id="path7382"
             inkscape:connector-curvature="0" />
        </g>
        <g
           id="g7384"
           transform="matrix(1.3507937,0,0,-1.3507937,460.35047,802.74407)">
          <path
             d="m 0,0 c 0,0 4.799,-1.09 7.462,-7.59 0,0 2.335,-6.196 0.233,-11.481 0,0 -1.993,12.754 -7.695,19.071"
             style="fill:#ac7733;fill-opacity:1;fill-rule:nonzero;stroke:none"
             id="path7386"
             inkscape:connector-curvature="0" />
        </g>
        <g
           id="g7388"
           transform="matrix(1.3507937,0,0,-1.3507937,447.74945,812.99632)">
          <path
             d="m 0,0 c 0,0 -8.147,-3.967 -16.165,-1.788 0,0 -6.98,0.765 -12.358,8.038 0,0 4.611,4.497 14.322,2.131 0,0 8.702,-2.42 14.201,-8.381"
             style="fill:#d29125;fill-opacity:1;fill-rule:nonzero;stroke:none"
             id="path7390"
             inkscape:connector-curvature="0" />
        </g>
        <g
           id="g7392"
           transform="matrix(1.3507937,0,0,-1.3507937,447.68934,813.02536)">
          <path
             d="m 0,0 c 0,0 -4.346,5.279 -4.239,10.68 0,0 -0.69,4.649 3.583,8.434 0,0 4.101,-2.896 4.135,-9.417 C 3.479,9.697 3.314,3.86 0,0"
             style="fill:#d29125;fill-opacity:1;fill-rule:nonzero;stroke:none"
             id="path7394"
             inkscape:connector-curvature="0" />
        </g>
        <g
           id="g7396"
           transform="matrix(1.3507937,0,0,-1.3507937,447.72892,812.97201)">
          <path
             d="m 0,0 c 0,0 -9.947,-5.623 -16.748,-3.501 0,0 -8.702,2.825 -11.775,9.733 0,0 12.17,-6.134 28.523,-6.232"
             style="fill:#ac7733;fill-opacity:1;fill-rule:nonzero;stroke:none"
             id="path7398"
             inkscape:connector-curvature="0" />
        </g>
        <g
           id="g7400"
           transform="matrix(1.3507937,0,0,-1.3507937,446.76594,787.1578)">
          <path
             d="m 0,0 c 0,0 3.849,-2.429 4.162,-8.951 0,0 0.082,-6.183 -3.449,-10.177 0,0 2.282,11.827 -0.713,19.128"
             style="fill:#ac7733;fill-opacity:1;fill-rule:nonzero;stroke:none"
             id="path7402"
             inkscape:connector-curvature="0" />
        </g>
        <g
           id="g7404"
           transform="matrix(1.3507937,0,0,-1.3507937,434.00729,792.35592)">
          <path
             d="m 0,0 c 0,0 -7.858,-1.562 -14.192,2.119 0,0 -5.754,2.198 -8.644,9.584 0,0 4.949,2.786 12.658,-1.385 0,0 6.844,-4.019 10.178,-10.318"
             style="fill:#d29125;fill-opacity:1;fill-rule:nonzero;stroke:none"
             id="path7406"
             inkscape:connector-curvature="0" />
        </g>
        <g
           id="g7408"
           transform="matrix(1.3507937,0,0,-1.3507937,433.93543,792.35592)">
          <path
             d="m 0,0 c 0,0 -2.48,5.474 -1.139,10.032 0,0 0.473,4.125 4.993,6.387 0,0 2.812,-3.395 1.361,-8.926 C 5.215,7.493 3.714,2.527 0,0"
             style="fill:#d29125;fill-opacity:1;fill-rule:nonzero;stroke:none"
             id="path7410"
             inkscape:connector-curvature="0" />
        </g>
        <g
           id="g7412"
           transform="matrix(1.3507937,0,0,-1.3507937,433.97433,792.31891)">
          <path
             d="m 0,0 c 0,0 -9.758,-2.576 -15.055,0.764 0,0 -6.778,4.379 -7.776,10.912 0,0 8.943,-7.94 22.831,-11.676"
             style="fill:#ac7733;fill-opacity:1;fill-rule:nonzero;stroke:none"
             id="path7414"
             inkscape:connector-curvature="0" />
        </g>
        <g
           id="g7416"
           transform="matrix(1.3507937,0,0,-1.3507937,439.1295,770.1482)">
          <path
             d="m 0,0 c 0,0 2.72,-2.947 1.466,-8.567 0,0 -1.361,-5.267 -5.282,-7.873 0,0 4.674,9.544 3.816,16.44"
             style="fill:#ac7733;fill-opacity:1;fill-rule:nonzero;stroke:none"
             id="path7418"
             inkscape:connector-curvature="0" />
        </g>
        <g
           id="g7420"
           transform="matrix(1.3507937,0,0,-1.3507937,426.70328,770.1482)">
          <path
             d="m 0,0 c 0,0 -6.517,-0.252 -11.129,3.504 0,0 -4.322,2.524 -5.663,8.832 0,0 4.361,1.617 10,-2.743 0,0 4.973,-4.11 6.792,-9.593"
             style="fill:#d29125;fill-opacity:1;fill-rule:nonzero;stroke:none"
             id="path7422"
             inkscape:connector-curvature="0" />
        </g>
        <g
           id="g7424"
           transform="matrix(1.3507937,0,0,-1.3507937,426.68288,770.1482)">
          <path
             d="m 0,0 c 0,0 -1.277,4.698 0.411,8.205 0,0 0.93,3.261 4.862,4.5 0,0 1.809,-3.102 -0.116,-7.362 C 5.157,5.343 3.318,1.562 0,0"
             style="fill:#d29125;fill-opacity:1;fill-rule:nonzero;stroke:none"
             id="path7426"
             inkscape:connector-curvature="0" />
        </g>
        <g
           id="g7428"
           transform="matrix(1.3507937,0,0,-1.3507937,426.70328,770.13172)">
          <path
             d="m 0,0 c 0,0 -8.187,-0.825 -11.992,2.563 0,0 -4.867,4.4 -4.814,9.786 0,0 6.13,-7.563 16.806,-12.349"
             style="fill:#ac7733;fill-opacity:1;fill-rule:nonzero;stroke:none"
             id="path7430"
             inkscape:connector-curvature="0" />
        </g>
        <g
           id="g7432"
           transform="matrix(1.3507937,0,0,-1.3507937,433.78508,752.9738)">
          <path
             d="m 0,0 c 0,0 1.799,-2.722 0.049,-7.073 0,0 -1.795,-4.052 -5.292,-5.641 0,0 5.032,7.069 5.243,12.714"
             style="fill:#ac7733;fill-opacity:1;fill-rule:nonzero;stroke:none"
             id="path7434"
             inkscape:connector-curvature="0" />
        </g>
        <g
           id="g7436"
           transform="matrix(1.3507937,0,0,-1.3507937,422.08896,750.07892)">
          <path
             d="m 0,0 c 0,0 -5.142,2.415 -7.207,7.148 0,0 -2.335,3.691 -0.771,9.107 0,0 4.023,-0.463 6.599,-6.092 0,0 2.195,-5.158 1.379,-10.163"
             style="fill:#d29125;fill-opacity:1;fill-rule:nonzero;stroke:none"
             id="path7438"
             inkscape:connector-curvature="0" />
        </g>
        <g
           id="g7440"
           transform="matrix(1.3507937,0,0,-1.3507937,422.06451,750.03339)">
          <path
             d="m 0,0 c 0,0 0.93,4.168 3.661,6.217 0,0 2.064,2.137 5.625,1.537 0,0 0.144,-3.12 -3.094,-5.656 C 6.192,2.098 3.216,-0.116 0,0"
             style="fill:#d29125;fill-opacity:1;fill-rule:nonzero;stroke:none"
             id="path7442"
             inkscape:connector-curvature="0" />
        </g>
        <g
           id="g7444"
           transform="matrix(1.3507937,0,0,-1.3507937,422.08896,750.03339)">
          <path
             d="m 0,0 c 0,0 -6.67,2.618 -8.272,6.744 0,0 -1.968,5.327 0.274,9.505 0,0 1.679,-8.282 7.998,-16.249"
             style="fill:#ac7733;fill-opacity:1;fill-rule:nonzero;stroke:none"
             id="path7446"
             inkscape:connector-curvature="0" />
        </g>
        <g
           id="g7448"
           transform="matrix(1.3507937,0,0,-1.3507937,434.60758,739.52584)">
          <path
             d="m 0,0 c 0,0 0.274,-2.822 -2.862,-5.493 0,0 -3.038,-2.465 -6.424,-2.298 0,0 6.807,3.495 9.286,7.791"
             style="fill:#ac7733;fill-opacity:1;fill-rule:nonzero;stroke:none"
             id="path7450"
             inkscape:connector-curvature="0" />
        </g>
        <g
           id="g7452"
           transform="matrix(1.3507937,0,0,-1.3507937,427.14512,732.80618)">
          <path
             d="m 0,0 c 0,0 -3.512,3.218 -3.955,7.52 0,0 -0.907,3.535 1.713,7.514 0,0 3.101,-1.382 3.743,-6.555 C 1.501,8.479 1.939,3.791 0,0"
             style="fill:#d29125;fill-opacity:1;fill-rule:nonzero;stroke:none"
             id="path7454"
             inkscape:connector-curvature="0" />
        </g>
        <g
           id="g7456"
           transform="matrix(1.3507937,0,0,-1.3507937,427.14512,732.78578)">
          <path
             d="m 0,0 c 0,0 1.81,3.105 4.54,4.071 0,0 2.199,1.208 4.901,-0.165 0,0 -0.685,-2.524 -3.941,-3.757 C 5.5,0.149 2.547,-0.889 0,0"
             style="fill:#d29125;fill-opacity:1;fill-rule:nonzero;stroke:none"
             id="path7458"
             inkscape:connector-curvature="0" />
        </g>
        <g
           id="g7460"
           transform="matrix(1.3507937,0,0,-1.3507937,427.16633,732.80618)">
          <path
             d="m 0,0 c 0,0 -4.708,3.775 -4.916,7.486 0,0 -0.222,4.774 2.658,7.557 0,0 -0.782,-7.079 2.258,-15.043"
             style="fill:#ac7733;fill-opacity:1;fill-rule:nonzero;stroke:none"
             id="path7462"
             inkscape:connector-curvature="0" />
        </g>
        <g
           id="g7464"
           transform="matrix(1.3507937,0,0,-1.3507937,439.8985,727.45582)">
          <path
             d="m 0,0 c 0,0 -0.487,-2.351 -3.714,-3.727 0,0 -3.065,-1.199 -5.727,-0.234 0,0 6.338,1.124 9.441,3.961"
             style="fill:#ac7733;fill-opacity:1;fill-rule:nonzero;stroke:none"
             id="path7466"
             inkscape:connector-curvature="0" />
        </g>
        <g
           id="g7468"
           transform="matrix(1.3507937,0,0,-1.3507937,434.76387,718.44535)">
          <path
             d="m 0,0 c 0,0 -3.029,2.893 -3.305,6.68 0,0 -0.752,3.117 1.617,6.567 0,0 2.715,-1.309 3.183,-5.849 C 1.495,7.398 1.771,3.294 0,0"
             style="fill:#d29125;fill-opacity:1;fill-rule:nonzero;stroke:none"
             id="path7470"
             inkscape:connector-curvature="0" />
        </g>
        <g
           id="g7472"
           transform="matrix(1.3507937,0,0,-1.3507937,434.76387,718.43293)">
          <path
             d="m 0,0 c 0,0 1.648,2.707 4.042,3.474 0,0 1.963,1.044 4.292,-0.204 0,0 -0.631,-2.223 -3.521,-3.255 C 4.813,0.015 2.218,-0.84 0,0"
             style="fill:#d29125;fill-opacity:1;fill-rule:nonzero;stroke:none"
             id="path7474"
             inkscape:connector-curvature="0" />
        </g>
        <g
           id="g7476"
           transform="matrix(1.3507937,0,0,-1.3507937,434.76387,718.43293)">
          <path
             d="m 0,0 c 0,0 -4.043,3.392 -4.159,6.646 0,0 -0.087,4.193 2.471,6.592 0,0 -0.821,-6.187 1.688,-13.238"
             style="fill:#ac7733;fill-opacity:1;fill-rule:nonzero;stroke:none"
             id="path7478"
             inkscape:connector-curvature="0" />
        </g>
        <g
           id="g7480"
           transform="matrix(1.3507937,0,0,-1.3507937,446.02192,713.9953)">
          <path
             d="m 0,0 c 0,0 -0.463,-2.049 -3.31,-3.188 0,0 -2.705,-1.022 -5.024,-0.097 0,0 5.585,0.834 8.334,3.285"
             style="fill:#ac7733;fill-opacity:1;fill-rule:nonzero;stroke:none"
             id="path7482"
             inkscape:connector-curvature="0" />
        </g>
        <g
           id="g7484"
           transform="matrix(1.3507937,0,0,-1.3507937,443.40219,706.91349)">
          <path
             d="m 0,0 c 0,0 -2.754,2.649 -3.005,6.083 0,0 -0.685,2.874 1.486,5.995 0,0 2.471,-1.172 2.889,-5.31 C 1.37,6.768 1.637,3.011 0,0"
             style="fill:#d29125;fill-opacity:1;fill-rule:nonzero;stroke:none"
             id="path7486"
             inkscape:connector-curvature="0" />
        </g>
        <g
           id="g7488"
           transform="matrix(1.3507937,0,0,-1.3507937,443.40219,706.8931)">
          <path
             d="m 0,0 c 0,0 1.501,2.454 3.714,3.172 0,0 1.771,0.953 3.917,-0.2 0,0 -0.603,-2.016 -3.216,-2.953 C 4.415,0.019 2.026,-0.752 0,0"
             style="fill:#d29125;fill-opacity:1;fill-rule:nonzero;stroke:none"
             id="path7490"
             inkscape:connector-curvature="0" />
        </g>
        <g
           id="g7492"
           transform="matrix(1.3507937,0,0,-1.3507937,443.42259,706.8931)">
          <path
             d="m 0,0 c 0,0 -3.69,3.103 -3.787,6.068 0,0 -0.091,3.824 2.253,5.995 0,0 -0.748,-5.63 1.534,-12.063"
             style="fill:#ac7733;fill-opacity:1;fill-rule:nonzero;stroke:none"
             id="path7494"
             inkscape:connector-curvature="0" />
        </g>
        <g
           id="g7496"
           transform="matrix(1.3507937,0,0,-1.3507937,453.7105,702.85854)">
          <path
             d="m 0,0 c 0,0 -0.443,-1.873 -3.043,-2.896 0,0 -2.456,-0.925 -4.588,-0.091 0,0 5.099,0.777 7.631,2.987"
             style="fill:#ac7733;fill-opacity:1;fill-rule:nonzero;stroke:none"
             id="path7498"
             inkscape:connector-curvature="0" />
        </g>
        <g
           id="g7500"
           transform="matrix(1.3507937,0,0,-1.3507937,635.97607,870.40384)">
          <path
             d="m 0,0 c 0,0 5.371,-11.691 16.255,-16.468 0,0 8.473,-5.365 21.084,-2.143 0,0 -0.96,9.109 -13.89,15.15 0,0 -11.867,5.111 -23.449,3.461"
             style="fill:#d29125;fill-opacity:1;fill-rule:nonzero;stroke:none"
             id="path7502"
             inkscape:connector-curvature="0" />
        </g>
        <g
           id="g7504"
           transform="matrix(1.3507937,0,0,-1.3507937,636.01686,870.50663)">
          <path
             d="m 0,0 c 0,0 9.67,1.967 14.535,8.056 0,0 5.048,4.524 3.793,12.58 0,0 -7.222,0.414 -13.246,-6.765 C 5.082,13.871 -0.115,7.246 0,0"
             style="fill:#d29125;fill-opacity:1;fill-rule:nonzero;stroke:none"
             id="path7506"
             inkscape:connector-curvature="0" />
        </g>
        <g
           id="g7508"
           transform="matrix(1.3507937,0,0,-1.3507937,636.01686,870.40384)">
          <path
             d="m 0,0 c 0,0 5.827,-15.137 15.336,-18.87 0,0 12.284,-4.661 22.003,0.241 0,0 -19.126,4.091 -37.339,18.629"
             style="fill:#ac7733;fill-opacity:1;fill-rule:nonzero;stroke:none"
             id="path7510"
             inkscape:connector-curvature="0" />
        </g>
        <g
           id="g7512"
           transform="matrix(1.3507937,0,0,-1.3507937,660.84432,842.66042)">
          <path
             d="m 0,0 c 0,0 -6.521,0.743 -12.859,-6.22 0,0 -5.78,-6.765 -5.551,-14.358 0,0 8.357,15.159 18.41,20.578"
             style="fill:#ac7733;fill-opacity:1;fill-rule:nonzero;stroke:none"
             id="path7514"
             inkscape:connector-curvature="0" />
        </g>
        <g
           id="g7516"
           transform="matrix(1.3507937,0,0,-1.3507937,747.74628,684.27)">
          <path
             d="m 0,0 c 0,0 7.092,-2.177 6.193,-9.353 0,0 -6.482,1.918 -6.193,9.353"
             style="fill:#d29125;fill-opacity:1;fill-rule:nonzero;stroke:none"
             id="path7518"
             inkscape:connector-curvature="0" />
        </g>
        <g
           id="g7520"
           transform="matrix(1.3507937,0,0,-1.3507937,747.74628,684.27)">
          <path
             d="m 0,0 c 0,0 -1.987,-7.051 6.193,-9.353 0,0 -5.575,5.02 -6.193,9.353"
             style="fill:#ac7733;fill-opacity:1;fill-rule:nonzero;stroke:none"
             id="path7522"
             inkscape:connector-curvature="0" />
        </g>
        <g
           id="g7524"
           transform="matrix(1.3507937,0,0,-1.3507937,668.82778,861.72188)">
          <path
             d="m 0,0 c 0,0 6.729,-9.234 16.997,-11.53 0,0 8.273,-3.212 18.66,1.745 0,0 -2.417,7.718 -14.705,10.768 C 20.952,0.983 9.785,3.443 0,0"
             style="fill:#d29125;fill-opacity:1;fill-rule:nonzero;stroke:none"
             id="path7526"
             inkscape:connector-curvature="0" />
        </g>
        <g
           id="g7528"
           transform="matrix(1.3507937,0,0,-1.3507937,668.8937,861.7878)">
          <path
             d="m 0,0 c 0,0 8.056,3.346 11.203,9.453 0,0 3.606,4.765 1.109,11.548 0,0 -6.351,-0.84 -10.333,-8.092 C 1.979,12.909 -1.37,6.281 0,0"
             style="fill:#d29125;fill-opacity:1;fill-rule:nonzero;stroke:none"
             id="path7530"
             inkscape:connector-curvature="0" />
        </g>
        <g
           id="g7532"
           transform="matrix(1.3507937,0,0,-1.3507937,668.87262,861.685)">
          <path
             d="m 0,0 c 0,0 7.703,-12.136 16.607,-13.777 0,0 11.455,-1.957 19.05,3.955 0,0 -17.313,0.271 -35.657,9.822"
             style="fill:#ac7733;fill-opacity:1;fill-rule:nonzero;stroke:none"
             id="path7534"
             inkscape:connector-curvature="0" />
        </g>
        <g
           id="g7536"
           transform="matrix(1.3507937,0,0,-1.3507937,685.57411,833.41991)">
          <path
             d="m 0,0 c 0,0 -5.776,-0.454 -10.06,-7.572 0,0 -3.841,-6.859 -2.32,-13.38 0,0 4.604,14.547 12.38,20.952"
             style="fill:#ac7733;fill-opacity:1;fill-rule:nonzero;stroke:none"
             id="path7538"
             inkscape:connector-curvature="0" />
        </g>
        <g
           id="g7540"
           transform="matrix(1.3507937,0,0,-1.3507937,703.27032,845.09482)">
          <path
             d="m 0,0 c 0,0 6.518,-7.968 15.898,-9.493 0,0 7.596,-2.49 16.7,2.478 0,0 -2.601,6.85 -13.798,8.973 C 18.8,1.958 8.609,3.568 0,0"
             style="fill:#d29125;fill-opacity:1;fill-rule:nonzero;stroke:none"
             id="path7542"
             inkscape:connector-curvature="0" />
        </g>
        <g
           id="g7544"
           transform="matrix(1.3507937,0,0,-1.3507937,703.30733,845.13643)">
          <path
             d="m 0,0 c 0,0 7.072,3.438 9.596,9.052 0,0 2.984,4.484 0.372,10.458 0,0 -5.655,-1.081 -8.848,-7.806 C 1.12,11.704 -1.565,5.56 0,0"
             style="fill:#d29125;fill-opacity:1;fill-rule:nonzero;stroke:none"
             id="path7546"
             inkscape:connector-curvature="0" />
        </g>
        <g
           id="g7548"
           transform="matrix(1.3507937,0,0,-1.3507937,703.30733,845.07051)">
          <path
             d="m 0,0 c 0,0 7.557,-10.543 15.648,-11.548 0,0 10.419,-1.157 16.961,4.515 0,0 -15.618,-0.606 -32.609,7.033"
             style="fill:#ac7733;fill-opacity:1;fill-rule:nonzero;stroke:none"
             id="path7550"
             inkscape:connector-curvature="0" />
        </g>
        <g
           id="g7552"
           transform="matrix(1.3507937,0,0,-1.3507937,716.83769,818.78271)">
          <path
             d="m 0,0 c 0,0 -5.183,-0.707 -8.653,-7.322 0,0 -3.112,-6.379 -1.376,-12.176 0,0 3.385,13.332 10.029,19.498"
             style="fill:#ac7733;fill-opacity:1;fill-rule:nonzero;stroke:none"
             id="path7554"
             inkscape:connector-curvature="0" />
        </g>
        <g
           id="g7556"
           transform="matrix(1.3507937,0,0,-1.3507937,735.49944,828.50478)">
          <path
             d="m 0,0 c 0,0 6.796,-6.89 15.704,-7.544 0,0 7.325,-1.681 15.384,3.741 0,0 -3.011,6.175 -13.676,7.198 C 17.412,3.395 7.746,4.061 0,0"
             style="fill:#d29125;fill-opacity:1;fill-rule:nonzero;stroke:none"
             id="path7558"
             inkscape:connector-curvature="0" />
        </g>
        <g
           id="g7560"
           transform="matrix(1.3507937,0,0,-1.3507937,735.56941,828.53382)">
          <path
             d="m 0,0 c 0,0 6.317,3.772 8.175,9.283 0,0 2.408,4.436 -0.542,9.809 0,0 -5.182,-1.504 -7.614,-8.065 C 0.019,11.027 -1.945,5.066 0,0"
             style="fill:#d29125;fill-opacity:1;fill-rule:nonzero;stroke:none"
             id="path7562"
             inkscape:connector-curvature="0" />
        </g>
        <g
           id="g7564"
           transform="matrix(1.3507937,0,0,-1.3507937,735.53632,828.48033)">
          <path
             d="m 0,0 c 0,0 7.998,-9.222 15.644,-9.484 0,0 9.845,-0.222 15.45,5.663 0,0 -14.543,-1.89 -31.094,3.821"
             style="fill:#ac7733;fill-opacity:1;fill-rule:nonzero;stroke:none"
             id="path7566"
             inkscape:connector-curvature="0" />
        </g>
        <g
           id="g7568"
           transform="matrix(1.3507937,0,0,-1.3507937,745.91663,802.74407)">
          <path
             d="m 0,0 c 0,0 -4.782,-1.09 -7.462,-7.59 0,0 -2.335,-6.196 -0.223,-11.481 0,0 1.998,12.754 7.685,19.071"
             style="fill:#ac7733;fill-opacity:1;fill-rule:nonzero;stroke:none"
             id="path7570"
             inkscape:connector-curvature="0" />
        </g>
        <g
           id="g7572"
           transform="matrix(1.3507937,0,0,-1.3507937,758.53818,812.99632)">
          <path
             d="m 0,0 c 0,0 8.132,-3.967 16.173,-1.788 0,0 6.972,0.765 12.33,8.038 0,0 -4.607,4.497 -14.315,2.131 0,0 -8.68,-2.42 -14.188,-8.381"
             style="fill:#d29125;fill-opacity:1;fill-rule:nonzero;stroke:none"
             id="path7574"
             inkscape:connector-curvature="0" />
        </g>
        <g
           id="g7576"
           transform="matrix(1.3507937,0,0,-1.3507937,758.57897,813.02536)">
          <path
             d="m 0,0 c 0,0 4.36,5.279 4.244,10.68 0,0 0.703,4.649 -3.574,8.434 0,0 -4.116,-2.896 -4.128,-9.417 0,0 0.161,-5.837 3.458,-9.697"
             style="fill:#d29125;fill-opacity:1;fill-rule:nonzero;stroke:none"
             id="path7578"
             inkscape:connector-curvature="0" />
        </g>
        <g
           id="g7580"
           transform="matrix(1.3507937,0,0,-1.3507937,758.55533,812.97201)">
          <path
             d="m 0,0 c 0,0 9.912,-5.623 16.738,-3.501 0,0 8.714,2.825 11.783,9.733 C 28.521,6.232 16.34,0.098 0,0"
             style="fill:#ac7733;fill-opacity:1;fill-rule:nonzero;stroke:none"
             id="path7582"
             inkscape:connector-curvature="0" />
        </g>
        <g
           id="g7584"
           transform="matrix(1.3507937,0,0,-1.3507937,759.50116,787.1578)">
          <path
             d="m 0,0 c 0,0 -3.849,-2.429 -4.141,-8.951 0,0 -0.103,-6.183 3.428,-10.177 0,0 -2.277,11.827 0.713,19.128"
             style="fill:#ac7733;fill-opacity:1;fill-rule:nonzero;stroke:none"
             id="path7586"
             inkscape:connector-curvature="0" />
        </g>
        <g
           id="g7588"
           transform="matrix(1.3507937,0,0,-1.3507937,772.28223,792.35592)">
          <path
             d="m 0,0 c 0,0 7.855,-1.562 14.17,2.119 0,0 5.775,2.198 8.67,9.584 0,0 -4.969,2.786 -12.665,-1.385 C 10.175,10.318 3.313,6.299 0,0"
             style="fill:#d29125;fill-opacity:1;fill-rule:nonzero;stroke:none"
             id="path7590"
             inkscape:connector-curvature="0" />
        </g>
        <g
           id="g7592"
           transform="matrix(1.3507937,0,0,-1.3507937,772.31911,792.35592)">
          <path
             d="m 0,0 c 0,0 2.503,5.474 1.148,10.032 0,0 -0.462,4.125 -5,6.387 0,0 -2.806,-3.395 -1.338,-8.926 0,0 1.485,-4.966 5.19,-7.493"
             style="fill:#d29125;fill-opacity:1;fill-rule:nonzero;stroke:none"
             id="path7594"
             inkscape:connector-curvature="0" />
        </g>
        <g
           id="g7596"
           transform="matrix(1.3507937,0,0,-1.3507937,772.30722,792.31891)">
          <path
             d="m 0,0 c 0,0 9.749,-2.576 15.059,0.764 0,0 6.764,4.379 7.762,10.912 0,0 -8.925,-7.94 -22.821,-11.676"
             style="fill:#ac7733;fill-opacity:1;fill-rule:nonzero;stroke:none"
             id="path7598"
             inkscape:connector-curvature="0" />
        </g>
        <g
           id="g7600"
           transform="matrix(1.3507937,0,0,-1.3507937,767.1376,770.1482)">
          <path
             d="m 0,0 c 0,0 -2.71,-2.947 -1.452,-8.567 0,0 1.337,-5.267 5.279,-7.873 0,0 -4.671,9.544 -3.827,16.44"
             style="fill:#ac7733;fill-opacity:1;fill-rule:nonzero;stroke:none"
             id="path7602"
             inkscape:connector-curvature="0" />
        </g>
        <g
           id="g7604"
           transform="matrix(1.3507937,0,0,-1.3507937,779.53221,770.1482)">
          <path
             d="m 0,0 c 0,0 6.54,-0.252 11.146,3.504 0,0 4.33,2.524 5.682,8.832 0,0 -4.363,1.617 -9.999,-2.743 0,0 -4.98,-4.11 -6.829,-9.593"
             style="fill:#d29125;fill-opacity:1;fill-rule:nonzero;stroke:none"
             id="path7606"
             inkscape:connector-curvature="0" />
        </g>
        <g
           id="g7608"
           transform="matrix(1.3507937,0,0,-1.3507937,779.6034,770.1482)">
          <path
             d="m 0,0 c 0,0 1.278,4.698 -0.408,8.205 0,0 -0.95,3.261 -4.878,4.5 0,0 -1.808,-3.102 0.128,-7.362 0,0 1.845,-3.781 5.158,-5.343"
             style="fill:#d29125;fill-opacity:1;fill-rule:nonzero;stroke:none"
             id="path7610"
             inkscape:connector-curvature="0" />
        </g>
        <g
           id="g7612"
           transform="matrix(1.3507937,0,0,-1.3507937,779.56112,770.13172)">
          <path
             d="m 0,0 c 0,0 8.196,-0.825 11.996,2.563 0,0 4.865,4.4 4.811,9.786 C 16.807,12.349 10.681,4.786 0,0"
             style="fill:#ac7733;fill-opacity:1;fill-rule:nonzero;stroke:none"
             id="path7614"
             inkscape:connector-curvature="0" />
        </g>
        <g
           id="g7616"
           transform="matrix(1.3507937,0,0,-1.3507937,772.47607,752.9738)">
          <path
             d="m 0,0 c 0,0 -1.775,-2.722 -0.024,-7.073 0,0 1.774,-4.052 5.269,-5.641 0,0 -5.014,7.069 -5.245,12.714"
             style="fill:#ac7733;fill-opacity:1;fill-rule:nonzero;stroke:none"
             id="path7618"
             inkscape:connector-curvature="0" />
        </g>
        <g
           id="g7620"
           transform="matrix(1.3507937,0,0,-1.3507937,784.17556,750.07892)">
          <path
             d="m 0,0 c 0,0 5.146,2.415 7.21,7.148 0,0 2.332,3.691 0.794,9.107 0,0 -4.033,-0.463 -6.634,-6.092 C 1.37,10.163 -0.818,5.005 0,0"
             style="fill:#d29125;fill-opacity:1;fill-rule:nonzero;stroke:none"
             id="path7622"
             inkscape:connector-curvature="0" />
        </g>
        <g
           id="g7624"
           transform="matrix(1.3507937,0,0,-1.3507937,784.22568,750.03339)">
          <path
             d="m 0,0 c 0,0 -0.956,4.168 -3.678,6.217 0,0 -2.064,2.137 -5.623,1.537 0,0 -0.132,-3.12 3.102,-5.656 0,0 2.974,-2.214 6.199,-2.098"
             style="fill:#d29125;fill-opacity:1;fill-rule:nonzero;stroke:none"
             id="path7626"
             inkscape:connector-curvature="0" />
        </g>
        <g
           id="g7628"
           transform="matrix(1.3507937,0,0,-1.3507937,784.17556,750.03339)">
          <path
             d="m 0,0 c 0,0 6.698,2.618 8.264,6.744 0,0 1.994,5.327 -0.26,9.505 C 8.004,16.249 6.314,7.967 0,0"
             style="fill:#ac7733;fill-opacity:1;fill-rule:nonzero;stroke:none"
             id="path7630"
             inkscape:connector-curvature="0" />
        </g>
        <g
           id="g7632"
           transform="matrix(1.3507937,0,0,-1.3507937,771.66222,739.52584)">
          <path
             d="m 0,0 c 0,0 -0.256,-2.822 2.858,-5.493 0,0 3.054,-2.465 6.427,-2.298 0,0 -6.807,3.495 -9.285,7.791"
             style="fill:#ac7733;fill-opacity:1;fill-rule:nonzero;stroke:none"
             id="path7634"
             inkscape:connector-curvature="0" />
        </g>
        <g
           id="g7636"
           transform="matrix(1.3507937,0,0,-1.3507937,779.12197,732.80618)">
          <path
             d="m 0,0 c 0,0 3.51,3.218 3.964,7.52 0,0 0.922,3.535 -1.711,7.514 0,0 -3.103,-1.382 -3.754,-6.555 0,0 -0.444,-4.688 1.501,-8.479"
             style="fill:#d29125;fill-opacity:1;fill-rule:nonzero;stroke:none"
             id="path7638"
             inkscape:connector-curvature="0" />
        </g>
        <g
           id="g7640"
           transform="matrix(1.3507937,0,0,-1.3507937,779.1417,732.78578)">
          <path
             d="m 0,0 c 0,0 -1.82,3.105 -4.536,4.071 0,0 -2.204,1.208 -4.904,-0.165 0,0 0.684,-2.524 3.936,-3.757 0,0 2.956,-1.038 5.504,-0.149"
             style="fill:#d29125;fill-opacity:1;fill-rule:nonzero;stroke:none"
             id="path7642"
             inkscape:connector-curvature="0" />
        </g>
        <g
           id="g7644"
           transform="matrix(1.3507937,0,0,-1.3507937,779.12197,732.80618)">
          <path
             d="m 0,0 c 0,0 4.691,3.775 4.898,7.486 0,0 0.229,4.774 -2.645,7.557 C 2.253,15.043 3.038,7.964 0,0"
             style="fill:#ac7733;fill-opacity:1;fill-rule:nonzero;stroke:none"
             id="path7646"
             inkscape:connector-curvature="0" />
        </g>
        <g
           id="g7648"
           transform="matrix(1.3507937,0,0,-1.3507937,766.38966,727.45582)">
          <path
             d="m 0,0 c 0,0 0.487,-2.351 3.705,-3.727 0,0 3.057,-1.199 5.721,-0.234 0,0 -6.339,1.124 -9.426,3.961"
             style="fill:#ac7733;fill-opacity:1;fill-rule:nonzero;stroke:none"
             id="path7650"
             inkscape:connector-curvature="0" />
        </g>
        <g
           id="g7652"
           transform="matrix(1.3507937,0,0,-1.3507937,771.5343,718.44535)">
          <path
             d="m 0,0 c 0,0 3.017,2.893 3.297,6.68 0,0 0.737,3.117 -1.651,6.567 0,0 -2.7,-1.309 -3.163,-5.849 0,0 -0.277,-4.104 1.517,-7.398"
             style="fill:#d29125;fill-opacity:1;fill-rule:nonzero;stroke:none"
             id="path7654"
             inkscape:connector-curvature="0" />
        </g>
        <g
           id="g7656"
           transform="matrix(1.3507937,0,0,-1.3507937,771.5343,718.43293)">
          <path
             d="m 0,0 c 0,0 -1.656,2.707 -4.064,3.474 0,0 -1.953,1.044 -4.293,-0.204 0,0 0.629,-2.223 3.522,-3.255 0,0 2.606,-0.855 4.835,-0.015"
             style="fill:#d29125;fill-opacity:1;fill-rule:nonzero;stroke:none"
             id="path7658"
             inkscape:connector-curvature="0" />
        </g>
        <g
           id="g7660"
           transform="matrix(1.3507937,0,0,-1.3507937,771.50525,718.43293)">
          <path
             d="m 0,0 c 0,0 4.04,3.392 4.155,6.646 0,0 0.089,4.193 -2.487,6.592 C 1.668,13.238 2.524,7.051 0,0"
             style="fill:#ac7733;fill-opacity:1;fill-rule:nonzero;stroke:none"
             id="path7662"
             inkscape:connector-curvature="0" />
        </g>
        <g
           id="g7664"
           transform="matrix(1.3507937,0,0,-1.3507937,760.24504,713.9953)">
          <path
             d="m 0,0 c 0,0 0.478,-2.049 3.31,-3.188 0,0 2.703,-1.022 5.047,-0.097 0,0 -5.614,0.834 -8.357,3.285"
             style="fill:#ac7733;fill-opacity:1;fill-rule:nonzero;stroke:none"
             id="path7666"
             inkscape:connector-curvature="0" />
        </g>
        <g
           id="g7668"
           transform="matrix(1.3507937,0,0,-1.3507937,762.88071,706.91349)">
          <path
             d="m 0,0 c 0,0 2.74,2.649 3.018,6.083 0,0 0.672,2.874 -1.501,5.995 0,0 -2.479,-1.172 -2.899,-5.31 0,0 -0.244,-3.757 1.382,-6.768"
             style="fill:#d29125;fill-opacity:1;fill-rule:nonzero;stroke:none"
             id="path7670"
             inkscape:connector-curvature="0" />
        </g>
        <g
           id="g7672"
           transform="matrix(1.3507937,0,0,-1.3507937,762.88071,706.8931)">
          <path
             d="m 0,0 c 0,0 -1.516,2.454 -3.702,3.172 0,0 -1.805,0.953 -3.927,-0.2 0,0 0.59,-2.016 3.202,-2.953 0,0 2.387,-0.771 4.427,-0.019"
             style="fill:#d29125;fill-opacity:1;fill-rule:nonzero;stroke:none"
             id="path7674"
             inkscape:connector-curvature="0" />
        </g>
        <g
           id="g7676"
           transform="matrix(1.3507937,0,0,-1.3507937,762.8649,706.8931)">
          <path
             d="m 0,0 c 0,0 3.665,3.103 3.772,6.068 0,0 0.1,3.824 -2.244,5.995 C 1.528,12.063 2.28,6.433 0,0"
             style="fill:#ac7733;fill-opacity:1;fill-rule:nonzero;stroke:none"
             id="path7678"
             inkscape:connector-curvature="0" />
        </g>
        <g
           id="g7680"
           transform="matrix(1.3507937,0,0,-1.3507937,752.57564,702.85854)">
          <path
             d="m 0,0 c 0,0 0.444,-1.873 3.029,-2.896 0,0 2.482,-0.925 4.588,-0.091 0,0 -5.099,0.777 -7.617,2.987"
             style="fill:#ac7733;fill-opacity:1;fill-rule:nonzero;stroke:none"
             id="path7682"
             inkscape:connector-curvature="0" />
        </g>
        <g
           id="g7684"
           transform="matrix(1.3507937,0,0,-1.3507937,603.00428,650.00415)">
          <path
             d="m 0,0 -99.355,-35.271 0,-72.39 99.355,-35.898 99.056,35.581 0,73.294 L 0,0 Z m -0.011,-10.254 -88.645,-30.226 0,-62.072 88.645,-30.753 88.386,30.512 0,62.818 -88.386,29.721 z"
             style="fill:#fac000;fill-opacity:1;fill-rule:evenodd;stroke:none"
             id="path7686"
             inkscape:connector-curvature="0" />
        </g>
        <g
           id="g7688"
           transform="matrix(1.3507937,0,0,-1.3507937,468.77645,795.34172)">
          <path
             d="m 0,0 0,72.198 10.679,-5.056 0,-62.1 L 0,0 Z"
             style="fill:#ac7733;fill-opacity:1;fill-rule:evenodd;stroke:none"
             id="path7690"
             inkscape:connector-curvature="0" />
        </g>
        <g
           id="g7692"
           transform="matrix(1.3507937,0,0,-1.3507937,603.12099,649.95066)">
          <path
             d="M 0,0 0,-10.257 88.386,-39.908 98.82,-34.891 0,0 Z"
             style="fill:#ac7733;fill-opacity:1;fill-rule:evenodd;stroke:none"
             id="path7694"
             inkscape:connector-curvature="0" />
        </g>
        <g
           id="g7696"
           transform="matrix(1.3507937,0,0,-1.3507937,603.23243,830.04293)">
          <path
             d="M 0,0 -0.169,-10.467 98.667,25.275 88.057,30.524 0,0 Z"
             style="fill:#ac7733;fill-opacity:1;fill-rule:evenodd;stroke:none"
             id="path7698"
             inkscape:connector-curvature="0" />
        </g>
        <g
           id="g10158">
          <path
             style="fill:#83543b;fill-opacity:1;fill-rule:evenodd;stroke:none"
             d="m 603.08208,692.88982 c 0.52412,-0.54275 0.76133,-1.31323 1.14547,-1.96135 0.39873,-0.4988 0.78021,-1.27273 1.11441,-1.84947 0.16842,-0.73835 0.5369,-1.7294 1.22517,-2.05298 0.68111,-0.15691 1.42163,-0.36201 2.07263,-0.20369 0.5861,0.27218 1.27587,0.48173 0.99637,1.2357 0.63251,0.61053 0.70572,-0.3718 1.13332,-0.64568 0.72003,-0.61934 1.43525,-0.0118 2.16397,0.17696 0.7686,-0.24973 1.32495,0.61319 1.84653,0.93745 0.63854,0.22144 1.57294,0.2729 2.10589,0.3485 0.53178,-0.90457 -0.52139,-1.27163 -1.10265,-1.93023 -0.3555,-0.31089 -0.66196,-1.24353 -1.15047,-0.96047 -0.17572,0.87154 -0.56502,-0.55242 -0.41605,-1.032 -0.29818,-0.56209 -1.07404,-0.58901 -1.64932,-0.14859 -0.6025,-0.26628 -0.96729,-0.247 -1.0202,0.37366 -0.67018,0.41368 -1.35511,0.91372 -2.21361,0.6556 -1.11302,-0.11874 -2.81228,-0.47608 -2.92175,-1.82218 0.0852,-0.86902 0.71847,-1.7045 0.4309,-2.57461 0.0914,-0.57057 0.86155,-1.07275 0.65588,-1.3384 -0.71712,-0.0408 -0.66897,-1.59396 -1.53119,-0.89851 -0.82253,-0.0768 -1.33892,0.50306 -1.87626,1.05632 0.1327,0.30065 -0.31642,0.81232 -0.7321,1.27939 -0.43921,0.4596 0.0902,1.31057 0.51733,1.21687 0.5102,-0.77426 1.02663,0.1728 0.72095,0.74846 -0.10527,0.68542 -0.55355,1.34731 -0.11445,1.97474 -0.15157,0.88154 -0.01,2.20549 -1.07523,2.52869 0.3341,0.63861 0.80768,1.43081 0.0838,1.98702 -0.48128,0.60264 -0.20603,1.22028 -0.66459,1.98161 -0.33245,0.55778 -0.70602,0.85822 0.2553,0.91719 z"
             id="path7702"
             inkscape:connector-curvature="0" />
          <path
             style="fill:#83543b;fill-opacity:1;fill-rule:evenodd;stroke:none"
             d="m 599.72023,696.66516 c 0.89122,0.45555 0.87581,0.32011 1.67363,0 0.7752,0.0658 1.10387,-1.46186 2.09779,-1.14817 0.58085,0.0176 1.36015,-0.60737 1.49938,0.35931 0.71957,0.81226 0.77257,1.99428 0.99013,3.00956 -0.0705,0.88176 0.0143,1.70644 -0.17696,2.50843 -0.21303,0.5495 -0.36435,1.31731 -0.67334,1.76513 0.17314,0.75596 -0.37069,1.72875 0.28837,2.30211 -0.15277,0.74394 0.34833,1.27626 -0.2877,1.8751 -0.42489,0.83793 -1.34908,0.18324 -1.9141,0.77381 -1.16527,0.27602 -2.45426,0.50472 -3.68631,0.55517 -0.73154,-0.15142 -0.69257,-1.04637 -0.75645,-1.56287 0.008,-0.84688 -0.37941,-1.68205 -0.16884,-2.50842 -0.35152,-0.76904 0.13011,-1.56665 0.98202,-1.61285 0.85766,-0.21939 1.75565,-0.11897 2.55435,-0.48493 0.47322,-0.12295 1.51498,-0.25445 1.61687,-0.68635 -0.40809,-0.58463 -1.58138,-1.15387 -2.12806,-0.89536 -0.37716,0.82146 -0.99471,-0.33524 -1.48123,0.212 0.35846,0.74544 -1.60145,1.51538 -1.67633,0.46873 -0.11027,-0.74835 -0.0454,-1.54427 -0.3296,-2.24907 0.32926,-0.621 -0.11299,-1.1948 -0.0851,-1.8668 0.2982,-0.68526 1.16772,-0.41056 1.66148,-0.81453 z m -12.87712,-6.92147 c 0.20382,0.70313 0.95609,1.22221 1.56557,1.39402 0.67424,0.33009 1.70963,0.27851 2.4544,-0.0702 0.52833,-0.85096 1.5067,-1.26362 2.10048,-2.05996 1.04256,0.14835 1.6997,-1.54336 2.78128,-0.78886 0.96597,0.77731 0.32181,2.22936 1.06713,3.11628 -0.28066,0.67927 2.1e-4,1.3452 0.45657,1.86815 0.30148,0.12553 1.43207,0.9311 0.60651,1.51694 -0.81283,0.15777 0.34135,0.85437 -0.65784,1.35619 -0.35424,0.69176 -0.84021,1.38029 -1.68237,0.87459 -0.89441,-0.82429 -1.10354,0.72472 -0.30753,1.01438 0.49091,0.64125 0.81482,1.39517 1.07136,2.19178 0.8349,0.57166 0.53074,1.7306 0.95771,2.52058 -0.23759,1.03962 0.001,2.09984 0.0319,3.11404 0.22123,0.6748 -2.7e-4,1.4395 0.40984,2.0595 -0.19765,0.71129 0.0144,1.73954 -0.96311,1.88301 -1.11763,0.2654 -0.006,0.36692 0.43608,0.74076 0.90134,-0.0828 1.03845,0.60121 1.72654,0.20479 0.69284,0.42091 0.10364,0.82842 1.14682,0.37147 0.62703,-0.5224 1.93058,-0.43104 2.25448,-0.69971 0.24185,-0.63375 1.14935,-0.33333 1.64256,-0.73618 0.66352,-0.0912 1.23979,0.66309 1.47237,1.22652 0.003,0.63109 -1.3825,1.25161 -0.18921,1.3169 0.3858,0.50128 1.29571,0.77633 1.42923,-0.0715 -0.12626,-0.69708 0.32446,-1.15014 0.72268,-1.64932 0.20528,-0.66205 -1.41458,-0.22156 -0.72885,-1.20244 0.65387,-0.53306 -0.0593,-0.87459 0.006,-1.51829 0.28687,-1.1292 -0.25628,-2.22996 -0.0905,-3.3781 -0.12476,-0.90491 0.13392,-1.80907 0.0621,-2.68943 0.36346,-0.71048 -0.0172,-1.36452 0.21748,-2.09373 0.0166,-0.63795 -0.0637,-1.27164 -0.0864,-1.90732 -0.90379,-0.17453 -0.0426,-0.60958 0.32554,-0.63352 0.84767,-0.49911 0.0608,-1.61042 -0.40388,-2.16803 -1.19697,-0.11408 -2.51856,0.30384 -3.59581,-0.35256 -0.52035,0.3996 -1.14394,0.02 -1.63041,0.3242 -0.37386,0.51143 -1.16097,0.18927 -0.76725,-0.41065 0.35326,-0.62298 1.06227,-1.5385 0.24044,-2.11399 -0.54954,-0.14606 -0.68686,-1.13151 -1.08199,-1.36565 -0.79756,0.0661 -1.03414,1.12517 -1.6993,1.28325 -1.19678,-0.73254 0.38729,-2.22378 -0.58084,-3.11358 -0.34349,-0.85178 -0.17593,-1.79015 -0.44441,-2.63134 -0.0744,-0.79083 0.54994,-1.42139 0.0918,-2.12402 -0.0348,-0.6262 -0.33989,-1.04452 -0.47544,-1.60282 0.26362,-0.57497 0.20375,-1.49208 -0.71085,-1.26479 -0.79919,-0.0172 -1.63748,-0.22075 -2.12987,-0.89783 -0.9001,-0.0873 -0.24705,0.97281 0.12555,1.29493 0.91161,0.69041 1.16571,1.79551 1.45217,2.83039 0.71389,0.59207 0.23681,1.67627 0.40254,2.40847 -0.59671,0.82368 -1.82749,0.43622 -2.58167,1.01981 -1.36015,0.25729 -2.77077,0.0951 -4.12367,0.36205 -0.27592,-0.64531 -1.00275,-0.57363 -1.53255,-0.12601 -0.31381,0.31795 -1.39305,0.92841 -0.79352,1.37684 z"
             id="path7706"
             inkscape:connector-curvature="0" />
          <path
             style="fill:#83543b;fill-opacity:1;fill-rule:evenodd;stroke:none"
             d="m 611.78579,698.07133 c -0.15034,0.31621 -0.54667,-0.1422 0,0 z m 5.09249,0.15669 c -0.69641,-0.21005 -0.0565,-1.38374 -0.3377,-1.47236 -0.0129,0.96545 -1.58852,0.34291 -1.68984,1.31567 0.73945,0.66419 -0.47023,1.39567 -0.62947,2.0397 -0.65868,0.72744 -1.24059,1.64788 -2.10183,2.08968 -0.76007,0.30217 -1.20501,-0.93872 -1.66553,-0.42821 -0.32494,-0.44145 0.5309,-1.05139 0.31608,-1.80466 0.81387,0.0591 0.43493,-1.24773 1.25084,-1.29135 0.48434,-0.69714 0.94931,-1.39079 1.44805,-2.01134 0.76341,-0.33231 0.92417,-1.19353 1.75362,-1.36484 0.63494,-0.10632 -0.99342,-0.50223 -1.02342,-1.0866 -0.3095,-0.47476 -0.72202,-0.75772 -1.35157,-0.81342 -0.57539,0.0102 -1.20147,-0.0314 -1.65202,-0.43631 -0.56252,0.65097 0.51056,1.26192 -0.16614,1.8668 0.32225,0.7546 -0.15174,1.68099 -0.67,2.23691 -0.51857,-0.28988 -1.09478,-0.20084 -0.85381,0.51391 0.30619,0.70527 -0.30569,1.38402 -0.45367,1.98086 -0.53425,0.54362 -0.0798,1.73075 -0.72546,2.08712 0.77977,0.53411 -0.39071,1.19249 0.50654,1.70741 0.56671,0.15093 1.22527,0.006 1.8668,0.12697 0.83011,0.25857 0.0752,1.31921 -0.0608,1.90057 -0.29913,0.70263 -1.06132,0.99334 -1.11441,1.83302 0.64378,0.54027 -0.6707,1.22912 0.10671,1.70335 -0.0308,1.09784 0.69276,0.16553 1.24026,0.67 0.60694,-0.20372 1.29578,0.12382 1.54778,-0.65784 0.7903,0.0235 1.39489,-0.41124 2.18018,-0.76049 0.6283,-0.25114 1.41517,-0.64181 1.8274,0.15014 0.49856,0.61258 1.35928,1.01422 1.6509,1.73691 -0.15089,0.50222 0.16713,1.1405 0.44036,0.51331 0.5231,0.20876 1.06684,-0.0501 1.69336,0.18918 -0.003,-0.70456 0.0114,-1.23797 -0.52088,-1.72639 -0.56924,-0.43103 -0.88961,-1.02071 -0.73077,-1.40617 -0.58404,-0.20352 -1.12877,-0.84234 -0.72943,-1.46021 -0.62464,-1.00758 -2.02825,-0.98203 -3.09602,-0.77401 -0.9596,0.38133 0.6302,1.24982 0.28917,1.76604 -0.58288,0.32424 -1.51817,0.31534 -1.73317,-0.41659 -0.43906,0.57883 -1.52268,-0.001 -1.90462,0.73618 -0.93107,-0.0181 -0.89836,-0.97831 -0.38633,-1.5372 0.23603,-0.69195 1.15436,-0.51377 1.32195,-1.32122 0.28439,-0.84202 1.95381,-0.37695 1.61468,-1.53436 -0.16866,-0.78652 0.57334,-0.83398 1.10851,-1.0131 0.83043,-0.26748 1.21657,-1.54955 2.14825,-1.28055 0.85224,-0.41622 0.36264,-1.13261 0.45252,-1.81817 -0.3546,-0.38219 -0.81386,-0.51333 -1.16709,-0.74834 z"
             id="path7710"
             inkscape:connector-curvature="0" />
          <path
             style="fill:#83543b;fill-opacity:1;fill-rule:evenodd;stroke:none"
             d="m 583.24757,705.56472 c 0.49125,0.52876 0.46615,1.38705 0.62407,1.9654 0.73146,0.0905 1.33288,-0.026 1.83302,-0.62947 0.72895,-0.25893 1.35456,0.0654 2.04511,-0.48898 0.63826,-0.23052 1.43924,0.0525 1.81816,0.45657 0.0842,0.79692 -0.85754,1.36298 -1.07523,2.13425 -0.64832,0.56496 -0.65204,1.17898 -1.17384,1.78035 -0.51068,0.63259 -1.52499,0.43096 -2.03323,0.70001 0.0457,0.60675 -0.56443,0.97855 -0.17532,1.51664 0.31896,0.81262 1.2081,1.40595 1.13467,2.35713 1.05584,0.75804 0.71682,-0.63923 1.50479,-0.86315 0.66423,0.25766 1.16722,-0.38957 1.67868,-0.55449 0.51724,-0.18479 0.4782,-1.16711 1.19445,-1.20155 0.23337,-0.58383 0.78099,-0.10338 1.35485,-0.64973 0.73443,-0.18518 1.42051,-0.74136 2.16397,-1.0293 0.85591,-0.37112 0.0774,-1.98154 -0.82668,-1.51289 -0.89367,-0.0746 -0.8681,-0.60365 -1.24405,0.48983 -0.45552,0.5909 -1.24251,1.00913 -1.91006,0.85961 -0.40618,-0.6168 -0.21648,-1.29062 0.28502,-1.76008 0.29211,-0.85216 0.8089,-1.60775 1.43589,-2.19639 0.43018,-1.195 1.78809,-1.77847 2.30446,-2.85423 -0.0558,-0.55958 0.49507,-1.05423 0.46872,-1.63311 -0.27216,-0.44048 -0.40788,-1.84713 -1.18821,-1.42389 -0.89305,0.69012 -0.65753,2.04015 -1.53364,2.77333 -0.30894,0.78763 -1.01,1.6522 -1.91002,1.76414 -0.66858,-1.04546 -2.30098,0.52434 -2.77979,-0.70893 0.17999,-1.00752 0.94791,-1.85593 1.3955,-2.78609 0.89996,-1.57065 2.05162,-2.96913 2.83099,-4.60299 0.22973,-0.57009 1.27052,-1.46663 0.29431,-1.8342 -0.89078,-0.19804 -1.22685,-1.35427 -2.15705,-1.34827 -0.65806,0.63583 0.25537,1.08989 -0.15769,1.82622 -0.0989,1.32258 -0.0991,2.67333 -0.14894,3.993 -0.44184,0.49407 -1.29103,0.2518 -1.41308,1.01741 -0.69899,0.29756 -0.86972,0.646 -0.94541,1.33027 -0.61041,0.60837 -0.84805,1.51747 -1.74945,1.81634 -0.4712,0.47179 -1.03322,0.66953 -1.69777,0.51918 -0.63596,0.0519 -0.32657,0.40609 -0.2472,0.77806 z"
             id="path7714"
             inkscape:connector-curvature="0" />
          <path
             style="fill:#83543b;fill-opacity:1;fill-rule:evenodd;stroke:none"
             d="m 628.91074,715.20034 c -0.44848,-0.27193 -1.35709,-0.77601 -1.43293,-0.94522 -0.73711,0.61552 -1.58885,-0.32449 -2.41278,-0.21916 -0.0701,-0.83568 -0.91685,-0.34145 -1.45236,-0.71779 -0.6553,-0.0164 -1.38649,0.47272 -2.12859,0.30714 -0.84355,-0.19834 -1.56827,0.33365 -2.39496,-0.0122 -0.78753,-0.40798 -1.1051,0.77018 -1.979,0.54091 -0.71762,0.32011 -1.35312,-0.42538 -1.97612,0.1669 -0.62627,0.089 -1.30745,0.0555 -1.76601,0.17386 -0.6197,0.33848 -1.11094,-0.0759 -1.8163,0.28947 -0.9755,0.16911 -1.91635,0.0952 -2.87449,0.33364 -0.6284,-0.61522 -1.28995,0.35353 -1.75198,-0.13103 -0.76627,-0.18705 0.10095,-1.71747 -0.69025,-1.01174 -0.68494,-0.4385 -1.03668,0.60764 -1.64122,0.6781 -0.77748,0.34845 -0.93854,-0.49619 -1.59627,-0.78715 -0.42964,-1.07184 1.00301,-0.44598 1.16672,-0.96236 -0.53247,-0.1531 -0.92938,-0.20607 -1.39537,0.0556 0.30779,0.47366 -0.81474,0.7993 -0.93205,0.27962 -0.77785,0.14698 -1.14148,-0.5502 -1.64121,-0.85911 -0.7209,-0.47712 -1.25188,0.57756 -0.40524,0.27421 0.6635,0.0412 0.8822,0.7403 0.95096,1.32108 0.92804,-0.38423 0.97965,1.26004 0.9388,1.62771 -0.66516,0.021 -1.28148,0.006 -1.96563,0.2634 -0.98034,-0.44693 -1.94236,0.19585 -2.86886,0.39038 -0.63976,0.2754 -1.25148,0.14527 -1.82393,0.48459 -1.26678,0.58411 -2.72878,0.74748 -4.07904,0.38802 -0.54165,0.75594 -1.59354,0.57449 -2.34768,0.32149 -1.11003,0.72484 -2.49216,0.18346 -3.70658,0.47953 -0.82866,-0.10821 -1.66698,0.0508 -2.36524,0.46603 -1.19239,0.28175 -2.34237,0.81311 -3.53097,1.04011 -0.89175,0.58459 -1.95912,0.75032 -2.99066,0.7605 -0.39493,0.49403 -0.93176,0.68085 -0.37012,1.27109 0.32666,0.49582 1.05716,0.7335 1.57882,0.84638 0.77247,0.48347 1.92226,0.76428 2.51274,-0.16017 0.88984,0.13809 0.84916,-0.0364 1.4575,-0.61191 0.62425,0.25191 1.07399,-0.21157 1.63717,-0.2472 0.527,-0.38301 1.20694,-0.0598 1.79115,-0.39848 0.77555,-0.34632 1.65879,-0.23007 2.42467,-0.45657 0.37149,-0.57774 0.93074,0.11057 1.5318,-0.42415 0.85537,-0.31821 0.75447,-0.0661 1.35485,0.0662 0.61914,-0.23849 1.17371,-0.20586 1.60744,-0.73618 0.62316,-0.39249 1.45306,0.0942 1.95055,-0.593 0.82981,-0.35903 1.73971,0.007 2.61919,-0.30798 0.47351,-0.3662 1.30818,-0.14451 1.8749,-0.51466 0.76156,-0.0699 1.32262,-0.56434 2.00728,-0.82533 0.43022,-0.67143 1.42572,-0.30154 2.07887,-0.21478 0.94178,-0.16946 1.07431,1.34997 0.85235,2.0451 0.37059,0.77572 -0.31478,1.66082 0.0865,2.43819 -0.007,0.74513 -0.19688,1.51343 -0.67809,2.10048 0.77726,0.4923 0.15292,1.68835 0.57408,2.17208 -0.50006,0.0868 0.0956,1.1451 -0.39713,1.50613 -0.15801,0.77877 0.31838,2.0543 -0.88072,2.15047 -0.8887,-0.0179 -1.55304,-0.0887 -1.22942,0.89234 0.50251,0.68874 0.46799,1.56353 1.03491,2.14289 0.60506,-0.38564 0.27443,0.86469 1.07523,0.82128 0.46075,0.33006 1.1073,0.46781 1.66823,0.4282 0.18703,-0.83456 0.22092,0.38221 0.47413,0.18911 1.01155,0.21158 0.0443,-0.79919 0.19586,-1.31972 -0.71296,0.37303 -0.44341,-0.45366 -0.67674,-0.80237 0.36573,-0.69918 -0.99263,-0.74708 -0.42415,-1.52505 0.32209,-0.8584 0.1946,-1.80888 0.30528,-2.67727 0.0712,-0.7278 0.0137,-1.37171 0.0414,-2.06534 -0.002,-0.76393 0.50928,-1.51015 0.47233,-2.0057 -1.08907,-1.10391 0.41175,-2.65561 -0.38808,-3.82165 -0.0176,-0.79187 0.46361,-1.50865 0.26746,-2.295 -0.0532,-0.66696 0.70081,-1.55048 1.10397,-0.66706 0.81302,0.59546 0.38347,-0.0819 0.96544,-0.0732 0.31752,-0.90033 1.54984,-0.22617 2.25165,-0.5013 0.64579,-0.26087 1.29542,0.10414 1.96418,-0.15654 0.76675,-0.0545 1.17559,0.8052 1.87085,0.0338 0.66242,-0.26792 1.25719,0.19114 1.74793,0.27962 0.60535,-0.43002 1.29743,0.37309 1.98701,-0.0216 1.11079,2.7e-4 2.30774,-0.11492 3.29324,0.40389 0.9119,0.0862 1.83309,-0.20674 2.67457,0.2634 0.62172,0.06 1.25346,-0.33004 1.73013,0.32477 0.45958,0.77447 1.23257,-0.47728 1.55095,0.32497 0.34075,0.73567 0.91348,-0.8989 1.27515,0.2661 0.68492,-0.15722 1.49748,0.0762 2.07752,-0.44306 0.70091,-0.58484 0.50821,-0.86205 0.33229,-1.62095 -0.0306,-0.21383 -0.13104,-0.40285 -0.3458,-0.47683 z"
             id="path7718"
             inkscape:connector-curvature="0" />
          <path
             style="fill:#83543b;fill-opacity:1;fill-rule:evenodd;stroke:none"
             d="m 617.12426,727.09759 c 0.19604,-0.86415 -0.0251,-1.1419 -0.22629,-2.01017 -0.76573,-0.42202 0.55432,-1.36621 -0.40723,-1.3371 -0.1332,-0.80435 -0.72884,-0.67671 -1.4386,-0.90503 -0.42425,-0.64308 -1.00968,-1.39525 -1.85379,-1.36177 -0.90078,-0.2197 -1.77093,-0.40611 -2.50657,-0.98996 -0.80338,0.61783 0.2656,1.08976 0.5025,1.56287 0.33262,0.53919 0.82796,0.95942 1.3156,1.41871 0.28767,0.54154 0.33618,1.19128 0.81107,1.70156 -0.3787,0.89867 1.19585,1.10004 0.79239,2.00734 0.67355,0.45349 0.49712,1.90602 1.57232,1.66958 0.43023,0.81193 1.2359,0.93418 1.76684,0.10671 0.26966,-0.59536 -0.63734,-1.09674 -0.21342,-1.72226 l -0.0486,-0.0865 -0.0662,-0.054 z"
             id="path7722"
             inkscape:connector-curvature="0" />
          <path
             style="fill:#83543b;fill-opacity:1;fill-rule:evenodd;stroke:none"
             d="m 591.44337,722.45491 c -0.33889,0.6376 -1.3479,0.77617 -1.12116,1.67769 -0.21025,1.04039 -0.73601,2.11748 -0.2607,3.1541 0.2005,0.44992 0.42908,1.07197 0.29987,1.69525 0.64111,0.17921 0.28072,0.80349 0.96582,0.93339 0.9893,0.53201 0.82286,0.22996 0.37687,-0.69971 -0.19492,-0.86561 0.53017,-1.59619 0.32554,-2.48816 0.26969,-0.83514 0.14696,-1.59234 0.13779,-2.45439 0.12308,-0.68898 0.0708,-1.56493 -0.72403,-1.81817 z"
             id="path7726"
             inkscape:connector-curvature="0" />
          <path
             inkscape:connector-curvature="0"
             id="path7730"
             d="m 632.74808,800.50283 c -2.22645,-0.70328 -4.43076,-1.55614 -6.71223,-2.00992 -1.41204,-0.83486 -2.74281,-1.77424 -4.00091,-2.82727 -3.14304,-1.11196 -5.33669,-3.71805 -7.66557,-5.96275 -1.58636,-1.72284 -3.83778,-2.55453 -5.55195,-4.12903 -2.34696,-1.82111 -4.66194,-3.69874 -6.69994,-5.8719 0.82194,-0.94704 2.04957,-1.49456 3.28518,-1.42498 1.43406,-0.36267 2.97852,-0.27274 4.35601,-0.74198 3.07996,-0.16604 6.41415,0.77159 9.26535,-0.78596 -0.6069,-1.57473 -2.27799,-2.44895 -3.92529,-2.31123 -2.17034,-0.0436 -4.26759,0.71868 -6.43395,0.71054 -1.22715,-0.974 -2.317,0.61928 -3.50421,0.781 -0.8836,0.051 -1.99695,-0.45901 -2.54194,0.56024 -0.95045,-0.12638 -2.02109,-0.25288 -2.81506,-0.80634 0.18792,-0.71103 -0.008,-1.45594 0.52023,-2.03662 0.68997,-1.37911 0.66341,-2.95559 0.65894,-4.4607 0.98715,-0.84694 -0.24037,-1.90923 -0.52009,-2.78534 -0.57381,-0.21177 -1.32374,-0.75661 -1.51964,-1.56151 -0.52155,-0.85686 -1.19373,-0.49958 -0.82672,0.4023 -0.30543,1.46381 -0.50388,2.93316 -0.46457,4.43589 -0.17226,2.22954 -0.40065,4.5017 -1.10112,6.62461 -0.55976,0.99384 -1.68228,1.96132 -2.87837,1.41297 -1.14567,-0.0893 -2.07709,1.0921 -3.17257,0.86228 -1.07207,-0.70991 -2.1918,0.37718 -3.19708,0.60574 -1.39198,0.17811 -2.77272,0.53784 -4.06793,1.08622 2.17629,1.06189 4.61129,1.85227 7.04844,1.32378 0.83041,0.0467 1.53208,-0.80567 2.30715,-0.28779 0.78643,-0.0993 1.21911,-1.26874 2.09242,-0.76454 0.3808,1.84869 -0.37019,3.77402 -1.62233,5.13572 0.0419,2.78042 -2.67898,4.57105 -3.02991,7.25106 -1.18154,-0.088 -0.74851,1.79267 -1.88301,1.86674 -1.50582,2.34734 -3.93054,3.84742 -5.87049,5.77906 -1.95333,1.15982 -4.07496,2.04839 -5.84629,3.48603 -0.39984,0.15041 -1.76234,1.15307 -0.68509,0.94537 0.75796,-0.06 1.57752,-0.39141 2.27632,0.084 2.06335,-1.05903 4.89632,-0.86106 6.34593,-2.94807 0.48958,-0.60583 1.57541,-0.36148 2.15515,-1.00731 1.82607,-1.21032 2.28156,-3.58346 4.02213,-4.88286 0.9977,-0.91026 0.81949,-2.5099 1.94109,-3.32295 0.57022,-1.52825 2.30157,-2.56548 2.19641,-4.33875 1.79188,-1.44836 1.88338,-3.94201 2.26115,-6.02626 0.48144,-1.11646 1.03295,-2.74928 2.54768,-2.58097 1.84645,-0.11522 2.92086,1.59451 3.72684,2.99336 1.23674,1.40461 2.8664,2.40905 3.94972,3.96458 0.87053,0.956 2.06169,1.47987 2.74207,2.60949 2.70424,3.37929 5.23916,6.95769 8.63064,9.70038 1.06863,0.84333 2.24759,1.53826 3.26314,2.45025 2.2459,1.74003 5.2957,1.13287 7.80663,0.39229 1.21441,-0.27249 2.41158,-0.65208 3.65215,-0.78265 -0.17141,-0.26857 -0.34358,-0.53839 -0.51451,-0.80618 z"
             style="fill:#83543b;fill-opacity:1;fill-rule:nonzero;stroke:none" />
          <path
             inkscape:connector-curvature="0"
             id="path7734"
             d="m 678.87039,745.85971 c -0.32394,1.78258 0.0542,3.93825 -1.51288,5.23162 -0.90588,0.62431 -2.09284,0.76608 -3.12303,1.02256 -1.54466,-0.50929 -1.66126,-2.4223 -2.67985,-3.49805 -0.93498,-1.0132 -0.6621,-2.99019 0.86372,-3.20614 1.50247,-0.26988 2.95887,-0.69005 4.41962,-1.05207 0.80661,-0.43435 2.22095,-0.61525 2.69436,0.3673 0.0374,0.54377 -0.54789,0.65661 -0.66194,1.13478 z m 23.7456,-3.11763 c -1.18419,-0.97211 -3.17657,-0.23154 -4.12127,-1.54279 -0.28965,-0.6366 -1.49412,0.22337 -2.18443,-0.0304 -1.42645,-0.12615 -2.96189,-0.25048 -4.34638,-0.0797 -0.83886,0.54646 -1.94332,-0.58914 -2.70513,0.25508 -0.66076,0.68766 -1.29314,-0.17581 -1.96661,0.12519 -1.08109,0.11225 -2.135,0.40229 -3.16302,0.63644 -0.96852,7.3e-4 -1.95465,0.0353 -2.88326,0.20282 -1.51026,-0.0678 -3.02363,0.0984 -4.53539,0.11724 -0.3141,0.68799 -1.49952,0.6317 -1.99377,0.2378 -0.855,-0.44996 -2.01265,-1.12471 -1.55068,-2.26528 0.6342,-0.56249 0.98635,-1.36893 0.84704,-2.24319 -0.20124,-0.95105 0.96662,-1.309 0.79425,-2.25225 -0.33868,-1.15827 1.22523,-1.51617 2.06022,-1.83271 0.88762,-0.13641 1.4283,-0.9254 2.27107,-1.01355 1.08945,-0.2633 2.29847,-0.51892 3.34389,-0.14697 1.29263,-0.27065 2.53148,-0.99913 3.88492,-0.82672 0.32177,-0.46589 2.05684,-1.07982 1.05289,-1.56053 -1.2696,-0.71699 -2.628,-1.62987 -4.15847,-1.17074 -1.22875,0.25446 -2.38069,0.73544 -3.60657,0.97788 -0.98659,0.21332 -1.96318,1.25747 -2.9812,0.82264 -0.90596,-0.44121 -0.79607,-1.2598 -0.38614,-1.94277 0.0822,-1.0994 -0.0767,-2.28078 0.26735,-3.28751 -0.27555,-1.52489 0.56653,-3.05356 0.1553,-4.58189 0.61863,-0.96269 -0.25743,-2.08431 -0.0851,-3.14913 -0.16997,-0.54063 0.8412,-1.60862 -0.10669,-1.61234 -0.71901,0.59635 -1.80394,-0.26078 -2.28419,0.62947 -0.6408,0.70362 -0.19821,1.37657 0.3945,1.90604 0.13295,0.67543 -0.66748,1.295 -0.49578,2.05135 0.077,0.89979 0.15605,1.83185 -0.15268,2.68447 0.0124,0.74667 0.84833,1.69421 -0.0538,2.24845 -0.60638,0.75203 0.31345,1.82097 -0.57532,2.43261 -0.43557,0.5824 0.2171,1.40508 -3.4e-4,2.12424 -0.11786,0.88919 -0.59116,1.81983 -1.62905,1.69525 -1.79054,0.19896 -3.58984,-0.28411 -5.36464,0.18628 -1.60635,0.30482 -3.24738,0.54125 -4.85006,0.59451 -0.37533,0.83186 0.76404,1.43243 1.4651,1.58219 0.72761,0.15937 1.1412,0.86149 1.93083,0.83567 0.71641,0.72575 1.81454,0.97571 2.74445,0.51756 1.33046,-0.20912 2.56981,-0.71172 3.78664,-1.2578 0.9652,-0.15756 1.81981,0.91568 1.39066,1.7826 -0.89996,1.08647 -0.41334,2.70141 -1.16498,3.86229 -0.11725,1.41787 -0.49818,3.31207 -2.19661,3.54474 -1.40226,0.43888 -2.73932,1.16288 -4.17932,1.39739 -0.85231,0.49103 -1.93846,0.46776 -2.80568,0.88685 -1.21956,0.039 -2.50269,-0.20172 -3.68479,0.004 -0.57523,0.41978 -0.0237,1.50633 -0.89296,1.70736 -0.26144,0.65872 -0.24534,1.6068 -0.19291,2.20577 0.64439,0.91459 0.46352,2.13643 0.0961,3.09025 0.14753,0.97312 0.0515,2.0286 0.18206,2.95879 0.90258,1.34778 -0.3247,2.93958 0.20647,4.3508 -0.18462,0.80337 -0.3468,1.63783 -0.0861,2.41005 -0.18972,1.10599 1.70284,0.53061 1.68947,1.60725 -0.0574,0.82005 -0.0118,1.50985 1.01615,1.43344 1.03987,-0.17953 0.54736,-1.43528 0.30697,-2.10542 7.3e-4,-0.73885 0.35687,-1.52341 -0.0804,-2.24851 -0.40136,-0.69561 0.35385,-1.54304 -0.20023,-2.03483 -0.83318,-1.06025 0.0132,-2.68321 -1.04256,-3.63986 0.24856,-1.71507 -0.67458,-3.30198 -0.87936,-4.97632 -0.71705,-0.62977 -1.54147,-1.69917 -0.8491,-2.63271 0.56091,-0.68884 1.69743,-0.20891 2.44005,-0.0879 1.27683,0.51178 2.6616,-0.15847 3.78774,-0.71181 1.28531,-0.13526 2.7928,-1.44206 3.92288,-0.22428 0.92156,1.51237 2.19409,2.82815 2.75156,4.52786 0.10582,1.16098 -1.14905,1.9343 -2.21719,1.96052 -1.23977,0.37546 -2.57239,0.0392 -3.78308,0.48318 0.33223,0.77237 1.32421,0.59348 1.89118,1.17665 0.66051,-0.31845 1.4012,-0.30665 2.18668,-0.27691 1.50488,-9.8e-4 2.99984,-0.65123 4.08236,-1.67358 0.81715,0.12808 1.8102,0.58367 1.36565,1.56016 -0.13234,1.04673 0.27361,2.13948 0.14493,3.13962 -0.75186,1.17304 -2.40957,0.86282 -3.61545,0.97473 -1.11988,-0.0137 -2.23506,0.0416 -3.22533,0.5931 -0.97779,0.12807 -1.97594,0.0479 -2.94473,0.2351 0.66118,0.46215 0.53732,1.88074 1.58606,1.63712 1.72624,0.0375 3.19093,-1.19456 4.92386,-1.03298 1.00478,-0.31351 1.9821,-1.07105 3.09288,-0.91759 1.0696,0.42421 1.04511,1.65048 0.81858,2.58677 0.0575,1.34842 0.74094,2.65676 0.54301,4.03887 -0.56754,0.63408 -0.44171,1.78724 -0.29474,2.66704 -6e-4,0.74914 0.009,1.49884 0.18254,2.19452 -0.0545,1.37792 0.56164,0.4562 0.68318,-0.37633 0.1253,-0.77538 0.61221,-1.51745 0.84647,-2.17504 -0.3023,-1.0315 0.0113,-2.23526 -0.71788,-3.12467 0.24344,-0.72951 0.28852,-1.48709 0.82843,-2.0099 0.67719,-1.02629 -0.39718,-2.25811 -0.24455,-3.38196 0.50347,-1.00259 1.91389,-0.6367 2.84585,-0.86706 1.66204,-0.16145 3.35151,-0.34358 4.9813,-0.50924 0.62974,-0.22211 1.48004,-0.80873 0.85236,-1.46997 -1.00087,-0.64429 -2.35902,-0.65246 -3.44157,-1.22015 -1.59814,0.0889 -2.93042,1.48436 -4.50392,1.36926 -0.84441,-0.31828 -0.4901,-1.40568 -0.85751,-2.03522 0.5293,-0.49701 -0.27393,-1.36808 0.4186,-1.87625 0.63001,-0.72349 1.75353,-0.58586 2.54043,-1.08436 0.66558,-0.53507 1.45931,0.4956 1.9521,-0.13205 0.38383,-0.58058 1.20591,-0.2676 1.74255,-0.67813 0.83696,-0.18771 1.52409,-0.6167 2.36396,-0.66821 0.96424,-0.61342 -1.16876,-0.22727 -1.46012,-0.74679 -1.25853,-0.49561 -2.779,0.0821 -3.99009,-0.55707 -0.41889,-0.51813 -0.0737,-1.60153 0.39975,-2.05538 0.77713,-0.48476 -0.5484,-1.13751 -0.3985,-1.73442 0.54236,-0.62593 1.39693,-1.01226 1.87494,-1.7601 0.65315,-0.81198 1.70523,-1.02902 2.66335,-0.73606 1.36804,0.12078 2.74863,-0.37528 4.10683,-0.0136 1.16181,-0.66038 2.46664,0.27397 3.69891,-0.0825 0.9973,-0.0164 2.01478,0.36725 2.99697,0.0823 1.19841,1.15249 3.04892,-0.46873 4.18954,0.62229 0.187,1.64042 0.53746,3.43689 0.16003,5.10767 0.72568,0.69352 0.38183,1.76767 0.15657,2.56516 0.58269,0.7448 0.0338,1.12346 -0.30185,1.71263 -0.0812,1.15772 -0.003,2.33323 -0.46792,3.41622 -0.0632,0.81424 -0.4259,1.54342 -0.75743,2.23234 -0.0383,1.25375 -0.27118,2.66661 -1.30114,3.46809 -0.8815,0.38179 -1.89704,0.10001 -2.65133,0.69897 -1.10602,0.4694 -2.95048,-0.26093 -3.37862,1.26249 1.44544,0.10349 2.29674,1.55074 3.56557,2.08397 0.68198,0.45458 1.07824,1.35591 1.73225,1.70776 0.53758,0.0883 1.66468,1.39343 1.49616,0.22811 0.25813,-1.10547 1.24617,-1.88071 1.43627,-3.02687 0.42011,-0.79148 0.76755,-1.59599 1.08045,-2.42196 0.66616,-0.67511 0.65694,-1.7112 1.30799,-2.32206 0.33512,-0.99861 0.28431,-2.1056 0.67873,-3.10957 0.41211,-1.50236 0.56486,-3.0719 1.21777,-4.50215 -0.20417,-0.82517 0.30673,-1.44895 0.46331,-2.17613 0.13764,-0.81024 -0.24361,-1.70389 0.3458,-2.36524 0.15095,-0.89772 -0.53409,-2.02912 0.53251,-2.55475 0.82352,-0.54542 0.52329,-1.40682 -0.14613,-1.91097 -0.75139,-0.65004 -1.67779,-1.12152 -2.63125,-1.39388 z"
             style="fill:#83543b;fill-opacity:1;fill-rule:nonzero;stroke:none" />
          <path
             style="fill:#83543b;fill-opacity:1;fill-rule:nonzero;stroke:none"
             d="m 516.3872,729.1997 c 0.92005,0.0907 1.80484,-0.13237 2.65418,-0.46364 1.27029,-0.34913 2.62029,-0.86926 3.93115,-0.40683 0.75383,0.58201 0.66759,1.69344 0.45931,2.53511 -0.16494,0.44693 -0.20033,1.14612 -0.79587,1.18553 -1.03643,0.372 -2.08756,1.1498 -3.23462,0.7503 -0.49567,-0.0786 -0.71598,0.69666 -1.2416,0.77326 -0.45714,0.23643 -0.98833,0.24673 -1.49294,0.25679 2.4222,-0.0353 4.82852,-0.33983 7.20331,-0.80305 1.78614,-0.31896 3.61347,-0.54745 5.37898,-0.89057 0.70218,-0.58908 1.71874,-0.38894 2.56107,-0.56032 0.59189,-0.0262 0.48129,-0.68906 -0.0123,-0.78771 -0.97939,-0.69179 -2.31691,-0.68419 -3.3339,-0.0663 -0.63772,0.40746 -1.36218,0.69264 -2.12825,0.52256 -0.60194,-0.0374 -0.95168,-0.56323 -0.88634,-1.13575 -0.0606,-1.08021 -0.0247,-2.51198 1.08798,-3.05873 2.8341,-0.91721 5.86699,-0.68266 8.77175,-1.19521 0.47477,-0.35385 0.325,-1.23777 -0.20794,-1.50878 -0.97443,-0.79008 -2.35458,-0.79101 -3.44564,-0.24221 -0.92577,0.49239 -1.87557,0.95874 -2.81803,1.39571 -0.73918,0.1663 -1.56456,0.60829 -2.30094,0.28978 -0.70096,-0.45808 -1.16146,-1.27007 -0.96747,-2.11606 0.23976,-1.6118 1.50434,-3.10807 0.99779,-4.79656 -0.25463,-0.71057 -1.01572,-1.07965 -1.53866,-1.59131 -0.75744,-0.68595 -2.02547,-0.97309 -2.83532,-0.20667 -0.0275,0.76627 -0.72116,1.53345 -0.27421,2.27879 0.25213,0.42445 1.10034,0.26945 0.88933,0.93628 0.14407,1.3508 -0.0574,2.70435 0.0912,4.05506 0.0301,0.61441 0.27474,1.20004 0.40811,1.7991 -0.82816,0.49648 -1.49613,1.31555 -2.41757,1.61387 -1.52639,-0.0422 -3.02008,0.32126 -4.43334,0.87946 -1.52939,0.58029 -3.17052,1.08238 -4.8186,0.79585 1.3595,0.67901 2.92678,0.39401 4.29862,-0.092 0.15026,-0.0486 0.30051,-0.0971 0.45077,-0.1457 z"
             id="path7738"
             inkscape:connector-curvature="0" />
          <path
             inkscape:connector-curvature="0"
             id="path7742"
             d="m 505.19303,767.63532 c 0.3208,0.14172 0.63897,0.37562 0.9709,0.12761 1.11314,-0.33644 2.15195,-0.8975 3.12888,-1.52231 1.62275,-1.04838 3.10888,-2.32352 4.29135,-3.85719 0.19797,-0.53602 0.69516,-0.91626 1.16605,-1.20426 0.25312,-0.17384 0.49387,-0.43121 0.66199,-0.68541 0.58991,-1.07209 1.37526,-2.04351 2.26537,-2.88478 0.68613,-0.65668 1.53355,-1.21192 2.50962,-1.24636 0.49731,0.12114 0.99404,0.38001 1.44336,0.64208 0.44666,0.32657 0.69318,0.93242 0.45821,1.45936 -0.48681,2.15401 -1.14979,4.28974 -2.25045,6.21529 -0.42986,0.8081 -1.01845,1.52999 -1.61244,2.22457 -0.4147,0.48332 -0.89983,1.019 -1.59385,0.9988 -1.07624,-0.0368 -1.97919,-0.74938 -3.0479,-0.84698 -0.0468,0.50036 0.34853,0.89877 0.46231,1.37245 0.27099,1.15734 0.49156,2.39351 1.26226,3.34098 0.32061,0.41275 0.90198,0.24416 1.35701,0.26632 1.13785,-0.0543 2.09393,-0.82683 2.79114,-1.67169 0.8507,-1.07184 1.33824,-2.3656 2.08182,-3.5075 0.28259,-0.52047 0.66618,-0.98984 0.9778,-1.48106 0.15462,-1.38623 1.16249,-2.434 1.93739,-3.52027 0.38166,-0.70983 0.88091,-1.4333 0.87244,-2.26962 -0.0486,-0.55344 -0.10568,-1.16074 -0.37705,-1.64196 -0.70401,-0.76682 -1.66523,-1.22511 -2.61436,-1.61621 -1.09367,-0.47527 -2.22209,-0.9006 -3.21993,-1.56028 -0.75199,-0.57198 -1.32953,-1.36494 -1.53439,-2.29648 -0.12706,-0.51387 -0.0332,0.3356 -0.0746,0.51327 -0.086,1.31008 -0.79911,2.47316 -1.4935,3.55084 -0.88215,1.17236 -1.91389,2.27787 -2.42838,3.67677 -0.89733,0.62313 -1.64637,1.43252 -2.42926,2.18907 -1.35473,1.359 -2.6134,2.82561 -4.09408,4.05125 -0.57847,0.46005 -1.20836,0.85102 -1.86775,1.1837 z"
             style="fill:#83543b;fill-opacity:1;fill-rule:nonzero;stroke:none" />
          <path
             inkscape:connector-curvature="0"
             id="path7746"
             d="m 545.05198,747.02315 c -1.62987,-1.21845 -3.85676,-0.88908 -5.71656,-0.46874 -1.0773,0.35487 -2.25436,0.0538 -3.33589,0.45777 -1.85276,0.41365 -3.81723,1.34561 -5.70092,0.56627 -0.22407,-1.98779 1.9746,-2.93138 2.49103,-4.64497 0.14862,-0.59052 0.25324,-1.60559 -0.57443,-1.66724 -0.5719,-0.0643 -1.01523,-0.54704 -0.74287,-1.12881 0.54289,-1.47303 2.61113,-1.87639 2.83252,-3.53959 0.17562,-0.95974 -0.79757,-1.48393 -1.49666,-1.89391 -0.78409,-0.43674 -1.66081,-0.32593 -2.45096,0.0251 -2.70658,0.88679 -5.43319,1.72321 -8.2505,2.18218 -1.38495,0.21155 -2.81277,0.57527 -4.20862,0.38632 -0.81344,-0.42127 -1.93956,-0.70566 -2.63135,0.0906 0.80977,2.13242 0.56434,4.56065 1.66148,6.59998 0.85518,-0.31355 1.6617,-0.73382 2.49626,-1.09415 -0.60147,-1.30576 -1.19371,-2.74015 -1.06195,-4.1929 0.3596,-0.8611 1.40844,-0.6273 2.11941,-0.81427 1.4637,-0.66919 3.14512,-0.30988 4.65568,-0.73784 1.23607,0.12259 2.38192,-0.69276 3.6063,-0.6761 0.65939,0.002 1.29417,0.45036 1.15733,1.17824 0.008,1.20369 -0.83456,2.1885 -1.57769,3.05606 -0.89422,0.009 -1.77369,0.28519 -2.49356,0.81866 1.10052,-0.22378 2.24475,-0.0268 3.34726,-0.2593 0.77544,0.65621 1.12995,1.6945 0.77907,2.66715 -0.40287,1.30469 -1.16024,2.49812 -1.72113,3.71251 -1.78758,1.36916 -4.11086,1.79441 -6.31571,1.8697 -0.15052,-1.29229 -0.25769,-2.60058 -1e-5,-3.88623 -0.75879,-0.25929 -1.19299,0.94996 -1.95512,0.45478 -0.43671,-0.12358 -1.43467,-0.53698 -1.55823,0.0924 0.13344,1.29586 1.41434,2.34224 1.25354,3.69712 -0.12883,0.73525 -1.11797,0.46685 -1.65492,0.69692 -4.29826,0.8034 -8.5701,1.7463 -12.81208,2.80704 -0.99756,1.18494 -2.6767,0.4084 -3.98175,0.68713 -1.00562,0.12462 -2.05148,-0.0493 -3.04122,0.29113 -1.12615,0.25664 -2.21294,0.66443 -3.23901,1.19372 0.70332,0.0932 1.33073,0.32067 1.82214,0.84632 1.51969,0.90456 3.31254,0.2313 4.75082,-0.50188 1.10366,-0.48632 2.20588,-1.07086 3.42832,-1.15629 1.82755,-1.46603 4.34149,-1.1012 6.41762,-1.97756 1.85726,0.003 3.4979,-1.79506 5.39507,-1.04421 0.67316,0.70245 0.94414,0.34849 1.44417,-0.29218 1.21928,-1.0222 2.93097,-1.10654 4.45099,-1.18473 1.39218,-0.0355 2.82152,-0.0455 4.15254,-0.43944 0.74891,-0.0739 0.24457,1.19025 0.92028,0.66846 2.58637,-1.6032 5.74958,-1.73116 8.7087,-1.77583 1.30461,0.0562 2.60712,-0.22841 3.88838,0.12741 1.74811,0.30818 3.56873,0.97996 5.33387,0.39604 0.3307,-0.78816 0.1205,-1.69213 -0.59164,-2.19284 z"
             style="fill:#83543b;fill-opacity:1;fill-rule:nonzero;stroke:none" />
          <path
             d="m 522.19277,742.38047 0,0 0.38363,0.0446 0.4309,0.0257 0.48223,0 0.47008,-0.0702 0.43495,-0.0986 0.39308,-0.13238 0.3242,-0.12292 0.0783,-0.15669 0.10536,-0.0446 -0.22828,-0.11211 -0.18371,-0.0527 -0.40254,-0.0243 -0.36606,0.0243 -0.3458,0.0986 -0.76185,0.30934 -0.40929,0.1675 -0.40524,0.14453 z"
             style="fill:#83543b;fill-opacity:1;fill-rule:nonzero;stroke:none"
             id="path7750"
             inkscape:connector-curvature="0" />
          <path
             inkscape:connector-curvature="0"
             id="path7754"
             d="m 538.13052,761.84095 c -0.0334,0.37415 -0.0966,0.76601 -0.37106,1.04329 -0.17273,0.25545 -0.47628,0.40333 -0.73458,0.56477 -0.58964,0.28725 -1.19317,0.55709 -1.75169,0.89659 -0.43702,0.1153 -0.89582,0.12368 -1.34315,0.15283 -0.69968,-0.0558 -1.44389,-0.2142 -1.97004,-0.7083 0.2521,-0.25133 0.35487,-0.61309 0.44476,-0.94697 0.17984,-0.9085 -0.14178,-1.805 -0.17496,-2.71131 -0.0466,-0.45015 -0.11541,-0.89954 -0.0122,-1.34774 0.0129,-0.36225 0.23485,-0.73372 0.58105,-0.8552 0.42753,-0.30619 0.99216,-0.23239 1.4868,-0.20118 0.29287,0.0658 0.58288,-0.053 0.87737,-0.054 0.76707,-0.18529 1.52472,-0.42749 2.30156,-0.56149 0.35163,-0.004 0.73915,-0.0722 1.06811,0.0615 0.32345,0.19203 0.66383,0.48278 0.65589,0.88572 -0.34816,0.94131 -0.52042,1.93233 -0.78563,2.8977 -0.0454,0.31037 -0.14626,0.59783 -0.27226,0.88383 z m -3.93621,-5.48692 c -0.44603,0.24607 -0.89661,0.54679 -1.43031,0.51057 -0.44313,0.0315 -0.87528,-0.1084 -1.28125,-0.26553 -0.61046,-0.29893 -1.19359,-0.64748 -1.74596,-1.04194 -0.17442,-0.0492 -0.48791,-0.36643 -0.56764,-0.23305 -0.15533,1.29773 0.28944,2.57335 0.23662,3.87202 0.0441,0.40349 -0.10174,0.7855 -0.18436,1.17313 -0.0938,0.2198 -0.20055,0.43342 -0.31143,0.64503 0.25079,0.42168 0.27136,0.92301 0.32693,1.39644 0.0166,0.63662 -0.0332,1.28066 0.025,1.91262 0.0868,0.40268 0.12439,0.84779 0.45739,1.13554 0.2011,0.27531 0.54099,0.37411 0.84543,0.4912 0.64082,-0.34931 1.35631,-0.54861 2.07417,-0.652 0.4631,0.01 0.89977,-0.1902 1.36518,-0.13414 1.80761,0.002 3.61559,0.0694 5.42265,0 0.21975,-0.0136 0.55273,0.0796 0.62603,-0.19843 -0.0681,-0.59424 -0.28657,-1.17692 -0.29989,-1.78044 0.0582,-0.46403 0.43933,-0.80367 0.72792,-1.14534 0.76463,-0.84588 1.65794,-1.56404 2.48026,-2.34943 0.4488,-0.52975 0.88865,-1.08424 1.13684,-1.74066 0.0535,-0.2111 0.25778,-0.45696 0.068,-0.6468 -0.21578,-0.34556 -0.35373,-0.73923 -0.68169,-1.00183 -0.40081,-0.42557 -0.83297,-0.85291 -1.40759,-1.0267 -0.69138,-0.35421 -1.5014,-0.30882 -2.25322,-0.24454 -1.39685,0.17845 -2.73552,0.64706 -4.09029,1.01521 -0.50137,0.15114 -1.02306,0.22492 -1.53883,0.30907 z"
             style="fill:#83543b;fill-opacity:1;fill-rule:nonzero;stroke:none" />
        </g>
      </g>
    </g>
  </g>
</svg>
